<?xml version="1.0" standalone="no"?><!-- Generator: Gravit.io --><svg xmlns="http://www.w3.org/2000/svg" xmlns:xlink="http://www.w3.org/1999/xlink" style="isolation:isolate" viewBox="136.109 184.329 287.936 174.821" width="287.936" height="174.821"><g id="goulelhom"><path d=" M 377.763 289.785 C 379.126 288.887 379.797 287.243 379.454 285.648 C 379.106 282.82 380.25 280.014 382.476 278.236 C 382.781 277.964 382.984 277.596 383.051 277.193 C 384.098 273.041 388.268 270.485 392.442 271.436 C 396.019 271.645 398.945 274.361 399.422 277.912 C 399.459 278.319 399.637 278.701 399.925 278.992 C 401.384 280.608 402.101 282.76 401.904 284.928 C 401.824 285.605 402.166 286.262 402.768 286.583 C 404.738 287.776 405.876 289.97 405.718 292.268 L 405.718 311.588 C 405.685 313.796 404.674 315.875 402.958 317.265 C 401.242 318.654 398.998 319.211 396.831 318.784 L 378.302 318.784 C 377.223 318.784 376.755 319.071 376.647 320.151 C 376.333 321.194 375.873 322.187 375.28 323.101 C 375.28 323.281 374.848 323.533 375.28 323.821 C 375.712 324.108 375.748 323.821 376 323.821 C 380.929 321.481 386.649 321.481 391.578 323.821 C 391.838 324.001 392.182 324.001 392.442 323.821 C 395.62 321.976 399.41 321.496 402.948 322.489 C 404.083 322.626 405.175 323.006 406.15 323.605 C 406.36 323.773 406.659 323.773 406.869 323.605 C 410.896 321.885 415.412 321.693 419.57 323.065 C 422.379 323.927 424.227 326.609 424.031 329.541 L 424.031 349.833 C 424.103 351.569 423.718 353.293 422.916 354.834 C 421.588 356.904 419.294 358.152 416.835 358.144 C 414.608 358.465 412.335 358.14 410.287 357.209 C 409.954 357.067 409.577 357.067 409.244 357.209 C 407.454 357.604 405.6 357.604 403.811 357.209 C 403.474 357.085 403.104 357.085 402.768 357.209 C 400.14 358.606 397.023 358.752 394.277 357.604 C 392.784 356.903 391.056 356.903 389.564 357.604 C 385.113 359.292 380.153 359.005 375.928 356.813 C 375.668 356.632 375.324 356.632 375.064 356.813 C 372.114 358.445 368.608 358.746 365.422 357.64 C 365.198 357.616 364.986 357.529 364.81 357.388 C 363.911 356.489 363.191 356.921 362.184 357.388 C 359.201 358.795 355.718 358.647 352.866 356.993 C 352.321 356.511 351.503 356.511 350.959 356.993 C 349.727 357.876 348.224 358.296 346.713 358.18 C 343.727 358.18 340.741 358.36 337.791 358.18 C 332.79 357.892 327.789 358.432 322.788 358.18 C 317.787 357.928 312.318 358.18 307.065 358.18 C 305.101 358.341 303.135 357.875 301.453 356.849 C 300.769 356.345 300.193 356.849 299.582 357.173 C 297.448 358.115 295.15 358.629 292.818 358.684 C 289.524 358.657 286.305 357.696 283.535 355.913 C 283.126 355.547 282.506 355.547 282.096 355.913 C 277.137 359.222 270.773 359.58 265.474 356.849 C 265.162 356.669 264.778 356.669 264.467 356.849 C 262.588 357.662 260.576 358.126 258.53 358.216 C 257.592 358.421 256.643 358.578 255.688 358.684 C 250.248 359.148 244.976 356.663 241.872 352.172 C 241.283 351.256 240.857 350.246 240.613 349.185 C 239.647 345.953 239.174 342.593 239.21 339.219 C 239.21 337.312 239.714 335.442 239.965 333.643 C 235.504 338.032 231.079 342.457 226.545 346.847 C 223.271 350.085 219.854 353.143 216.508 356.309 C 215.08 357.773 213.207 358.721 211.183 359.007 C 208.829 359.459 206.396 358.825 204.563 357.281 C 197.367 350.876 190.531 344.328 183.911 337.456 C 175.684 329.202 167.924 320.493 160.669 311.372 C 155.439 304.675 150.633 297.657 146.278 290.361 C 142.411 283.635 139.459 276.424 137.499 268.918 C 136.334 263.519 135.898 257.989 136.204 252.475 C 136.453 247.097 137.458 241.779 139.19 236.681 C 140.899 230.28 143.645 224.203 147.321 218.692 C 148.168 217.416 149.119 216.213 150.163 215.094 C 150.72 214.567 150.988 213.803 150.883 213.043 C 150.576 206.862 155.014 201.459 161.137 200.559 L 161.533 200.559 C 163.735 200.891 165.929 199.907 167.145 198.04 C 169.366 196.078 171.863 194.454 174.557 193.219 C 177.988 191.262 181.603 189.647 185.35 188.398 C 188.313 187.376 191.342 186.558 194.417 185.951 C 199.969 184.82 205.625 184.277 211.291 184.332 C 216.131 184.404 220.952 184.959 225.682 185.987 C 230.197 187.038 234.614 188.471 238.886 190.269 C 246.49 193.432 253.489 197.887 259.574 203.437 C 265.328 208.724 270.188 214.909 273.965 221.75 C 278.34 229.469 281.37 237.876 282.924 246.611 C 283.895 252.387 283.895 258.285 282.924 264.06 C 282.841 265.679 282.648 267.289 282.348 268.882 C 280.915 273.813 279.098 278.625 276.915 283.273 L 276.591 283.993 C 281.755 283.826 286.683 286.156 289.831 290.253 C 290.131 289.803 290.305 289.281 290.335 288.742 C 290.862 286.424 292.663 284.61 294.976 284.064 C 298.882 282.75 302.981 282.105 307.101 282.158 C 312.881 281.962 318.46 284.285 322.392 288.526 C 322.572 288.742 322.716 289.029 322.896 289.281 L 323.183 289.101 L 323.183 282.985 C 323.028 280.118 324.681 277.458 327.321 276.329 C 329.617 275.464 332.108 275.253 334.517 275.717 C 336.291 275.937 337.92 276.809 339.086 278.164 C 342.902 275.031 348.278 274.642 352.506 277.193 C 354.095 278.529 354.994 280.513 354.952 282.589 C 355.008 283.452 355.008 284.317 354.952 285.18 C 357.006 284.222 359.235 283.696 361.5 283.633 C 363.362 283.508 365.231 283.58 367.077 283.849 C 368.444 284.1 369.775 284.028 371.143 284.316 C 374.255 284.625 376.872 286.787 377.763 289.785 Z " fill="rgb(231,35,63)"/><path d=" M 276.232 244.884 C 272.139 223.492 257.882 205.436 238.023 196.493 C 229.772 192.889 220.958 190.746 211.974 190.161 C 209.202 190.077 206.429 190.282 203.699 190.773 C 193.412 191.702 183.477 194.989 174.665 200.379 C 173.228 201.173 171.938 202.207 170.851 203.437 C 170.086 204.159 169.991 205.342 170.631 206.177 C 171.27 207.011 172.438 207.226 173.333 206.675 C 174.094 206.267 174.827 205.81 175.528 205.308 C 185.648 198.576 197.553 195.029 209.708 195.126 L 211.758 195.126 C 215.969 195.19 220.163 195.672 224.279 196.565 C 225.178 196.565 225.754 197.285 225.466 198.328 C 225.178 199.371 224.855 200.703 224.459 201.926 C 221.868 209.337 219.674 216.893 216.867 224.232 C 215.896 226.679 215.968 226.643 213.269 226.391 C 207.866 225.8 202.4 226.567 197.367 228.622 C 190.648 231.59 185.185 236.823 181.932 243.409 C 180.745 245.604 180.709 245.64 178.334 244.956 L 166.893 241.646 L 152.646 237.652 C 150.595 237.077 150.595 236.717 151.315 234.738 C 152.034 232.759 152.862 231.14 153.797 229.413 C 154.733 227.686 156.28 225.024 157.395 222.829 C 157.737 222.357 157.862 221.761 157.738 221.191 C 157.615 220.622 157.254 220.131 156.747 219.843 C 155.56 218.98 154.769 219.627 154.049 220.491 C 152.951 221.832 151.987 223.278 151.171 224.808 C 147.4 231.57 144.877 238.955 143.723 246.611 C 143.399 248.806 142.788 250.964 142.572 253.195 C 142.386 258.048 142.944 262.902 144.227 267.586 C 145.095 271.697 146.435 275.693 148.221 279.495 C 152.625 288.549 157.992 297.101 164.231 305.004 C 169.666 312.256 175.516 319.187 181.752 325.763 C 190.315 334.866 199.094 343.753 208.484 351.956 C 210.067 353.359 210.067 353.323 211.614 351.956 C 222.473 342.213 232.779 331.871 242.484 320.978 C 244.499 318.676 246.478 316.337 248.456 313.998 C 249.182 313.159 249.108 311.895 248.291 311.146 C 247.473 310.396 246.207 310.433 245.434 311.228 C 244.798 311.828 244.197 312.465 243.635 313.135 C 239.426 318.244 234.821 323.029 230.359 327.922 C 229.568 328.822 229.028 328.714 228.344 327.922 C 225.79 324.324 223.199 321.014 220.645 317.596 C 219.638 316.229 219.71 315.905 221.257 315.078 C 223.847 313.747 226.438 312.415 229.064 311.12 C 231.69 309.825 231.439 309.681 230.539 307.522 C 228.308 301.838 226.042 296.225 223.775 290.577 C 222.48 287.374 222.444 287.374 225.466 285.755 C 239.025 277.967 245.08 261.601 239.857 246.863 C 238.261 242.421 235.677 238.398 232.302 235.098 C 229.298 232.027 225.595 229.731 221.509 228.406 C 220.357 228.01 219.889 227.506 220.321 226.211 C 221.473 222.973 222.516 219.699 223.559 216.425 C 224.351 213.907 224.567 213.835 226.797 215.31 L 242.412 225.492 C 244.211 226.679 244.894 226.679 246.406 225.24 C 249.392 222.398 252.882 220.167 255.832 217.289 C 256.695 216.461 257.379 216.605 258.17 217.289 C 259.596 218.818 260.918 220.441 262.128 222.146 C 266.91 229.263 270.225 237.262 271.878 245.676 C 273.461 252.517 273.461 259.63 271.878 266.471 C 270.084 272.958 267.409 279.168 263.927 284.928 C 262.488 287.482 260.869 289.893 259.43 292.447 C 258.638 293.851 258.926 294.822 260.077 295.506 C 261.229 296.189 262.38 295.685 263.315 294.102 C 265.942 289.857 268.604 285.648 270.835 281.186 C 276.897 270.113 278.811 257.241 276.232 244.884 Z  M 166.605 246.215 C 170.203 247.331 174.053 248.338 177.795 249.453 C 178.406 249.633 179.234 249.705 179.018 251.144 C 178.524 253.036 178.27 254.982 178.262 256.937 C 178.514 261.084 179.337 265.176 180.709 269.097 C 182.304 274.19 185.386 278.688 189.56 282.014 C 190.279 282.625 191.143 283.201 190.207 284.352 C 189.272 285.504 188.552 285.971 187.113 285.108 L 172.722 276.473 L 167.685 273.487 C 166.415 272.849 165.64 271.524 165.706 270.105 Q 165.49 258.736 165.166 247.331 C 165.166 246.251 165.382 245.819 166.605 246.215 Z  M 151.746 276.689 C 148.174 269.446 146.538 261.402 146.997 253.339 C 147.245 249.601 147.823 245.893 148.724 242.258 C 149.048 240.998 149.624 240.746 150.811 241.106 C 153.258 241.898 155.704 242.617 158.007 243.337 C 159.883 243.667 161.176 245.402 160.957 247.295 L 160.957 254.778 C 161.173 260.355 161.317 265.068 161.604 269.781 C 161.768 271.268 160.994 272.7 159.662 273.379 C 157.575 274.494 155.632 275.897 153.653 277.193 C 152.862 277.912 152.25 277.696 151.746 276.689 Z  M 169.736 305.472 C 164.294 298.665 159.386 291.448 155.056 283.885 C 153.869 281.798 153.905 281.582 155.956 280.287 C 158.007 278.992 159.77 277.84 161.712 276.689 C 162.121 276.39 162.569 276.148 163.044 275.969 C 163.721 275.935 164.391 276.125 164.95 276.509 Q 174.845 282.338 184.595 288.238 C 185.89 288.994 185.926 289.425 184.954 290.577 Q 178.694 297.952 172.182 305.4 C 171.283 306.659 170.779 306.695 169.772 305.436 L 169.736 305.472 Z  M 225.718 305.831 C 225.898 306.263 226.042 306.695 226.15 307.019 C 226.15 308.026 225.538 308.422 224.89 308.746 L 215.716 313.387 C 213.701 314.394 213.629 314.754 214.96 316.553 L 224.027 328.606 C 224.747 329.541 225.034 330.692 225.682 331.664 C 226.33 332.635 225.358 333.067 224.855 333.571 L 216.543 341.558 L 211.471 346.415 C 210.283 347.566 209.923 347.602 208.736 346.415 C 199.177 337.642 190.063 328.396 181.429 318.712 L 175.168 311.516 C 173.765 309.933 173.729 309.933 175.168 308.35 L 193.769 286.619 C 193.983 286.267 194.333 286.021 194.736 285.939 C 195.139 285.857 195.558 285.947 195.892 286.187 C 202.137 289.375 209.281 290.34 216.148 288.922 C 218.306 288.526 218.702 288.922 219.494 290.864 C 221.329 295.937 223.955 300.579 225.754 305.795 L 225.718 305.831 Z  M 253.385 213.583 C 250.687 215.885 247.989 218.224 245.326 220.599 C 244.687 221.348 243.565 221.444 242.808 220.814 L 226.833 210.417 C 226.424 210.196 226.12 209.82 225.991 209.373 C 225.863 208.926 225.92 208.446 226.15 208.042 C 227.229 205.056 228.129 201.962 229.136 198.94 C 229.352 198.256 229.568 197.5 230.683 197.572 C 232.09 197.96 233.462 198.466 234.785 199.084 C 241.719 202.042 248.058 206.236 253.493 211.46 C 254.465 212.36 254.285 212.827 253.385 213.583 Z  M 417.807 350.301 C 417.869 350.693 417.759 351.093 417.503 351.397 C 417.247 351.701 416.872 351.878 416.475 351.884 C 416.069 351.921 415.659 351.921 415.252 351.884 C 413.309 351.884 412.878 351.56 412.878 349.617 L 412.878 337.672 C 412.912 337.217 412.912 336.76 412.878 336.305 C 412.188 337.975 411.67 339.711 411.331 341.486 C 410.683 343.933 410.143 346.379 409.568 348.682 C 409.136 350.337 408.704 350.66 406.977 350.553 L 406.042 350.553 C 404.782 350.732 404.171 350.157 403.883 348.969 C 402.984 345.12 402.048 341.27 401.077 337.384 C 400.987 336.829 400.751 336.307 400.393 335.873 L 400.393 349.221 C 400.393 350.121 400.393 351.128 399.386 351.38 C 398.316 351.83 397.11 351.83 396.04 351.38 C 395.536 351.092 395.5 350.481 395.5 349.905 L 395.5 330.585 C 395.5 329.145 396.076 328.678 397.551 328.606 L 400.429 328.606 C 402.66 328.606 403.667 329.217 404.027 331.448 C 404.648 335.318 405.489 339.15 406.545 342.925 L 406.905 342.925 C 407.769 339.003 408.668 335.118 409.532 331.196 C 409.963 329.073 410.215 328.858 412.338 328.858 L 416.439 328.858 C 417.303 328.858 417.771 329.217 417.771 330.189 C 417.807 336.737 417.807 343.465 417.807 350.157 L 417.807 350.301 Z  M 386.182 328.714 C 384.569 328.372 382.902 328.372 381.289 328.714 C 378.605 329.226 376.476 331.27 375.856 333.931 C 374.808 337.544 374.636 341.355 375.352 345.048 C 375.35 347.02 376.157 348.907 377.585 350.268 C 379.014 351.628 380.938 352.342 382.908 352.244 C 385.128 352.647 387.416 352.096 389.209 350.727 C 391.003 349.358 392.137 347.296 392.334 345.048 C 392.549 343.426 392.645 341.791 392.622 340.155 C 392.702 337.849 392.373 335.546 391.65 333.355 C 390.944 330.8 388.802 328.898 386.182 328.498 L 386.182 328.714 Z  M 387.693 340.551 C 387.801 342.105 387.692 343.667 387.369 345.192 C 387.237 346.011 386.782 346.743 386.105 347.223 C 385.429 347.703 384.588 347.892 383.771 347.746 C 382.066 348.007 380.467 346.855 380.173 345.156 C 379.381 342.039 379.381 338.774 380.173 335.657 C 380.377 334.063 381.769 332.89 383.375 332.959 C 384.87 332.802 386.305 333.592 386.973 334.938 C 387.608 336.662 387.854 338.505 387.693 340.335 L 387.693 340.551 Z  M 276.519 328.75 C 274.56 328.247 272.506 328.247 270.547 328.75 C 268.426 329.087 266.616 330.465 265.726 332.419 C 263.85 337.093 263.684 342.279 265.258 347.063 C 265.944 349.875 268.378 351.915 271.267 352.1 C 273.519 352.675 275.909 352.272 277.848 350.991 C 279.787 349.709 281.095 347.669 281.449 345.372 C 281.752 343.818 281.921 342.241 281.952 340.658 C 281.989 338.627 281.783 336.598 281.341 334.614 C 280.979 331.902 279.111 329.629 276.519 328.75 Z  M 276.519 344.868 C 276.404 345.702 275.958 346.455 275.281 346.956 C 274.604 347.457 273.753 347.664 272.922 347.53 C 272.11 347.677 271.274 347.493 270.598 347.02 C 269.923 346.547 269.464 345.824 269.324 345.012 C 268.497 341.9 268.497 338.626 269.324 335.514 C 269.567 334.004 270.853 332.884 272.382 332.851 C 273.92 332.725 275.368 333.593 275.98 335.01 C 276.608 336.897 276.853 338.891 276.699 340.874 C 276.814 342.208 276.753 343.55 276.519 344.868 Z  M 371.97 349.005 C 371.97 349.941 372.186 351.02 371.215 351.488 C 370.058 351.938 368.774 351.938 367.617 351.488 C 367.005 351.488 367.149 350.696 367.149 350.193 L 367.149 343.861 C 367.149 342.853 366.861 342.349 365.782 342.349 C 364.703 342.349 363.227 342.134 361.932 342.349 C 360.637 342.565 359.737 343.105 359.845 344.724 C 359.953 346.343 359.845 347.998 360.133 349.653 C 360.235 350.276 360.044 350.912 359.615 351.376 C 359.187 351.84 358.568 352.08 357.939 352.028 C 356.14 352.028 355.348 351.488 355.312 349.869 L 355.312 330.8 C 355.312 328.966 355.852 328.606 358.298 328.642 C 359.809 328.642 360.097 329.073 360.061 330.872 C 360.025 332.671 360.061 334.47 360.061 336.341 C 360.061 337.384 360.457 337.888 361.536 337.852 C 362.616 337.816 364.379 337.852 365.782 337.852 C 367.185 337.852 367.221 337.348 367.221 336.341 L 367.221 330.728 C 367.221 328.714 367.617 328.714 369.236 328.714 C 372.078 328.714 372.078 328.714 372.042 331.772 C 372.006 337.492 372.078 343.249 372.114 349.005 L 371.97 349.005 Z  M 250.939 336.269 C 250.579 338.847 250.579 341.463 250.939 344.04 C 251.065 345.132 251.623 346.127 252.488 346.803 C 253.354 347.48 254.455 347.78 255.544 347.638 C 256.192 347.638 257.091 347.638 257.019 346.595 C 256.947 345.552 257.739 344.292 256.3 343.537 C 255.196 342.455 254.907 340.79 255.58 339.399 C 257.17 338.968 258.847 338.968 260.437 339.399 C 261.552 339.615 261.66 340.694 261.66 341.594 L 261.66 349.977 C 261.66 350.625 261.66 351.344 260.761 351.488 C 257.663 352.326 254.415 352.449 251.263 351.848 C 249.041 351.307 247.306 349.572 246.765 347.35 C 245.38 342.776 245.38 337.894 246.765 333.319 C 247.486 330.507 249.98 328.511 252.882 328.426 C 255.439 328.24 258.009 328.434 260.509 329.001 C 261.84 329.325 262.056 330.081 261.66 332.276 C 261.445 333.463 260.653 333.355 259.79 333.247 C 258.041 332.974 256.269 332.878 254.501 332.959 C 253.583 332.9 252.681 333.221 252.007 333.847 C 251.333 334.473 250.947 335.349 250.939 336.269 Z  M 301.021 330.441 L 301.021 344.04 C 301.021 350.229 296.883 352.459 291.63 351.992 C 288.664 352.136 285.992 350.21 285.19 347.35 C 284.895 346.174 284.75 344.965 284.759 343.753 L 284.759 330.477 C 284.759 328.75 285.298 328.354 287.493 328.318 C 288.896 328.318 289.436 328.822 289.436 330.369 L 289.436 344.22 C 289.561 345.407 290.266 346.454 291.318 347.016 C 292.37 347.578 293.633 347.582 294.689 347.027 C 295.678 346.469 296.254 345.388 296.164 344.256 L 296.164 336.701 L 296.164 330.692 C 296.164 328.678 296.595 328.534 298.25 328.534 L 299.222 328.534 C 300.697 328.678 301.057 329.037 301.021 330.441 Z  M 323.723 334.83 L 323.723 335.909 C 323.626 336.464 323.8 337.033 324.191 337.438 C 324.582 337.844 325.144 338.038 325.702 337.96 L 329.12 337.96 C 330.415 337.96 330.991 338.32 331.099 339.615 C 331.207 340.91 330.703 342.385 329.336 342.421 C 327.969 342.457 326.601 342.421 325.234 342.421 C 324.848 342.33 324.441 342.426 324.136 342.681 C 323.832 342.936 323.665 343.32 323.687 343.717 C 323.363 346.703 323.687 347.135 326.673 347.135 L 331.207 347.135 C 332.718 347.135 332.97 347.71 332.934 348.898 L 332.934 350.265 C 332.934 351.308 332.394 351.776 331.279 351.74 L 320.773 351.74 C 319.478 351.74 318.974 351.308 318.974 349.977 L 318.974 330.764 C 318.974 329.037 319.334 328.678 321.061 328.678 L 330.955 328.678 C 332.538 328.678 332.862 328.966 332.898 330.441 C 332.898 332.527 332.538 333.211 330.991 333.283 C 329.444 333.355 327.141 333.283 325.234 333.283 C 324.119 333.211 323.687 333.751 323.723 334.83 L 323.723 334.83 Z  M 348.116 348.574 L 348.116 349.941 C 348.116 351.308 347.721 351.74 346.318 351.74 L 337.431 351.74 C 336.172 351.74 335.704 351.272 335.704 350.049 L 335.704 331.16 C 335.704 329.001 336.064 328.642 338.15 328.678 L 338.834 328.678 C 340.345 328.678 340.597 329.037 340.561 330.585 L 340.561 345.516 C 340.561 346.667 341.065 347.171 342.216 347.099 L 346.749 347.099 C 347.649 347.063 348.188 347.53 348.116 348.574 Z  M 316.995 348.574 C 316.995 351.668 316.995 351.56 313.865 351.776 C 311.275 351.776 308.756 351.56 306.202 351.776 C 305.05 351.776 304.655 351.344 304.655 350.229 L 304.655 340.479 L 304.655 330.764 C 304.655 329.937 304.655 329.073 305.662 328.858 C 306.816 328.39 308.106 328.39 309.26 328.858 C 309.728 329.145 309.548 329.793 309.548 330.297 L 309.548 345.084 C 309.548 346.775 309.764 346.955 311.49 346.955 L 315.736 346.955 C 316.563 347.063 316.995 347.53 316.995 348.574 Z  M 352.686 329.973 C 352.074 331.916 351.498 333.859 350.815 335.801 C 350.39 336.926 349.28 337.642 348.08 337.564 C 347.253 337.564 346.677 337.241 346.929 336.089 C 347.325 334.29 347.541 332.491 347.901 330.585 C 348.151 329.666 348.823 328.922 349.711 328.581 C 350.6 328.24 351.598 328.343 352.398 328.858 C 352.764 329.102 352.888 329.582 352.686 329.973 Z  M 386.002 285.072 C 386.002 283.417 386.757 282.697 388.304 282.697 C 389.851 282.697 390.283 283.345 390.283 285.108 C 390.283 286.871 389.6 287.662 387.909 287.662 C 386.218 287.662 385.966 287.051 386.002 285.072 Z  M 389.132 280.071 C 389.132 278.272 389.707 277.624 391.434 277.624 C 393.161 277.624 393.305 277.912 393.305 279.963 C 393.305 282.014 392.694 282.481 390.931 282.445 C 389.168 282.409 389.132 281.978 389.132 280.071 Z  M 392.262 283.309 C 393.1 282.626 394.271 282.526 395.212 283.057 C 396.076 283.453 395.788 284.388 395.788 285.252 C 395.955 285.767 395.876 286.33 395.574 286.779 C 395.272 287.229 394.781 287.515 394.241 287.554 C 393.341 287.734 392.478 287.806 391.902 286.907 C 391.5 285.711 391.631 284.401 392.262 283.309 L 392.262 283.309 Z  M 348.872 310.113 L 348.872 284.172 C 348.872 281.906 348.872 281.726 346.354 281.798 C 345.995 281.763 345.633 281.763 345.274 281.798 C 344.896 281.814 344.546 282.006 344.328 282.315 C 344.109 282.625 344.047 283.019 344.159 283.381 C 344.249 284.422 344.249 285.47 344.159 286.511 L 344.159 306.155 C 344.159 307.918 343.943 308.098 342.144 308.062 C 340.345 308.026 338.942 308.062 337.359 308.062 C 334.661 308.062 334.445 308.062 334.445 305.328 L 334.445 283.093 C 334.445 282.23 334.121 281.798 333.293 281.726 C 332.658 281.689 332.022 281.689 331.387 281.726 C 330.271 281.726 329.767 282.373 329.767 283.597 L 329.767 306.515 C 329.767 307.954 329.372 308.278 327.933 308.17 C 326.244 308.044 324.548 308.044 322.86 308.17 C 321.456 308.17 321.133 308.17 321.133 306.587 C 321.258 304.442 321.258 302.292 321.133 300.147 C 320.899 295.939 318.466 292.165 314.729 290.217 C 309.188 287.858 302.939 287.794 297.351 290.037 C 295.876 290.469 296.595 291.872 296.739 292.915 C 296.883 293.959 297.675 293.635 298.358 293.527 C 301.717 292.832 305.155 292.602 308.576 292.843 C 312.185 293.172 315.197 295.736 316.096 299.247 C 316.575 301.163 316.769 303.139 316.671 305.112 C 316.671 308.494 317.427 308.206 313.397 308.17 C 312.983 308.235 312.562 308.111 312.248 307.832 C 311.935 307.554 311.763 307.15 311.778 306.731 L 311.778 305.364 C 311.552 301.097 308.063 297.734 303.791 297.664 C 301.455 297.679 299.228 298.656 297.635 300.365 C 296.042 302.074 295.224 304.363 295.372 306.695 C 295.372 307.882 295.012 308.242 293.897 308.206 C 292.782 308.17 291.055 308.206 289.616 308.206 C 287.349 308.206 286.521 307.271 286.485 305.004 C 286.45 302.737 286.485 301.154 286.485 299.247 C 286.71 294.932 283.575 291.17 279.29 290.613 C 276.377 290.21 273.417 290.332 270.547 290.972 C 269.09 291.151 267.954 292.318 267.813 293.779 C 266.939 298.224 266.817 302.785 267.453 307.271 C 267.76 308.215 267.372 309.246 266.517 309.753 C 265.349 310.613 264.583 311.913 264.395 313.351 C 263.718 317.425 264.064 321.604 265.402 325.512 C 265.654 326.519 266.877 326.735 268.388 326.231 C 269.36 325.907 269.216 325.296 269.072 324.504 C 268.559 322.368 268.257 320.187 268.172 317.992 C 268.172 314.106 269.648 312.631 273.497 312.631 L 283.931 312.631 C 284.83 312.631 285.766 312.811 286.342 311.804 C 286.557 311.444 286.881 311.804 287.169 311.804 C 288.144 312.42 289.294 312.698 290.443 312.595 L 346.533 312.595 C 348.476 312.415 348.872 312.092 348.872 310.113 L 348.872 310.113 Z  M 280.513 308.278 C 278.117 308.13 275.714 308.13 273.317 308.278 C 272.382 308.278 271.914 307.846 271.806 306.875 C 271.368 303.29 271.368 299.666 271.806 296.081 C 271.824 295.407 272.356 294.859 273.03 294.822 C 274.615 294.57 276.23 294.57 277.815 294.822 C 280.131 295.389 281.755 297.474 281.736 299.859 L 281.736 306.767 C 281.736 307.846 281.664 308.314 280.585 308.278 L 280.513 308.278 Z  M 303.647 308.278 C 302.85 308.135 302.034 308.135 301.237 308.278 C 300.962 308.367 300.662 308.325 300.423 308.163 C 300.184 308.002 300.032 307.738 300.013 307.45 C 299.545 305.901 299.868 304.219 300.877 302.953 C 301.749 301.97 303.087 301.54 304.369 301.833 C 305.65 302.125 306.67 303.092 307.029 304.356 C 308.037 307.558 307.533 308.17 303.719 308.278 L 303.647 308.278 Z  M 385.354 312.379 L 397.551 312.379 C 398.774 312.379 399.35 311.876 399.35 310.653 L 399.35 292.663 C 399.427 292.253 399.313 291.83 399.039 291.515 C 398.766 291.199 398.364 291.026 397.947 291.044 C 394.674 290.63 391.361 290.63 388.088 291.044 C 384.471 291.343 381.589 294.194 381.253 297.808 C 380.767 300.787 380.767 303.824 381.253 306.803 C 381.468 307.882 381.253 308.206 380.173 308.17 L 373.841 308.17 C 371.718 308.17 371.682 307.99 371.682 306.119 L 371.682 292.555 C 371.682 291.44 371.359 290.649 370.135 290.505 C 367.294 290.038 364.414 289.858 361.536 289.965 C 358.46 289.712 355.565 291.449 354.341 294.282 C 352.632 298.828 352.632 303.84 354.341 308.386 C 355.041 310.352 356.8 311.748 358.874 311.984 C 360.411 312.199 361.965 312.271 363.515 312.2 C 367.581 312.2 367.113 311.732 366.465 316.121 C 366.42 316.778 366.112 317.388 365.611 317.814 C 365.11 318.241 364.458 318.447 363.803 318.388 C 361.971 318.474 360.135 318.341 358.334 317.992 C 357.399 317.992 356.715 317.776 356.499 318.964 C 356.14 321.266 356.284 321.806 357.615 322.094 C 359.484 322.483 361.39 322.676 363.299 322.669 C 366.497 322.876 369.404 320.822 370.279 317.74 C 370.767 316.504 371.093 315.21 371.251 313.891 C 371.23 313.383 371.443 312.894 371.829 312.564 C 372.215 312.234 372.731 312.1 373.229 312.2 L 385.354 312.379 Z  M 386.146 297.341 C 386.296 296.658 386.727 296.07 387.333 295.721 C 389.178 294.796 391.262 294.457 393.305 294.75 C 394.241 294.75 394.565 295.65 394.708 296.549 C 394.83 298.454 394.83 300.365 394.708 302.27 L 394.708 306.803 C 394.708 308.206 394.349 308.386 393.269 308.278 C 391.497 308.152 389.717 308.152 387.945 308.278 C 386.985 308.408 386.095 307.756 385.93 306.803 C 385.125 303.685 385.225 300.403 386.218 297.341 L 386.146 297.341 Z  M 366.178 308.134 L 362.076 308.134 C 360.382 308.082 358.921 306.928 358.478 305.292 C 357.633 302.61 357.633 299.734 358.478 297.053 C 358.865 295.486 360.247 294.368 361.86 294.318 C 362.945 294.164 364.039 294.08 365.134 294.066 C 365.646 293.98 366.167 294.144 366.537 294.507 C 366.908 294.87 367.082 295.389 367.005 295.901 L 367.005 306.983 C 367.401 307.774 367.113 308.35 366.25 308.278 L 366.178 308.134 Z " fill="rgb(8,6,6)"/><path d=" M 157.503 212 C 157.748 208.911 160.341 206.538 163.439 206.567 C 166.508 206.741 168.883 209.323 168.8 212.396 C 168.655 215.433 166.225 217.863 163.188 218.008 C 161.608 218.055 160.085 217.425 158.999 216.278 C 157.913 215.13 157.369 213.574 157.503 212 Z  M 254.645 296.981 C 253.137 296.961 251.686 297.549 250.616 298.612 C 249.547 299.674 248.95 301.122 248.96 302.629 C 248.879 304.135 249.432 305.606 250.484 306.686 C 251.537 307.766 252.993 308.356 254.501 308.314 C 256.027 308.324 257.493 307.719 258.569 306.636 C 259.645 305.554 260.241 304.084 260.221 302.557 C 260.231 301.075 259.646 299.651 258.599 298.603 C 257.551 297.556 256.127 296.971 254.645 296.981 Z  M 208.412 262.298 C 208.916 263.521 208.412 264.312 207.261 264.888 C 206.729 265.15 206.175 265.367 205.606 265.536 C 204.491 265.967 203.735 265.536 203.411 264.492 C 203.088 263.449 202.728 262.909 201.648 262.945 C 200.569 262.981 199.202 262.945 198.698 264.348 C 198.195 265.751 197.403 265.895 196.216 265.428 L 194.813 264.96 C 193.733 264.564 193.158 263.917 193.697 262.729 C 194.186 261.692 193.794 260.454 192.798 259.887 C 192.417 259.477 191.882 259.245 191.323 259.245 C 190.763 259.245 190.229 259.477 189.848 259.887 C 189.056 260.607 188.444 260.283 187.941 259.491 C 187.437 258.7 187.401 258.556 187.077 258.124 C 185.962 256.325 186.07 255.857 187.905 254.778 C 188.336 254.526 188.696 254.238 188.624 253.735 C 188.5 252.932 188.319 252.138 188.085 251.36 C 187.942 250.651 187.295 250.158 186.573 250.209 C 185.35 250.209 184.954 249.597 185.17 248.446 C 185.17 247.834 185.458 247.223 185.566 246.575 C 185.854 244.884 186.142 244.704 187.833 245.064 C 189.524 245.424 189.668 244.452 190.207 243.589 C 190.825 242.863 190.825 241.796 190.207 241.07 C 188.984 239.523 189.02 239.343 190.531 238.156 C 190.942 237.864 191.339 237.552 191.718 237.221 C 192.582 236.537 193.373 236.465 194.057 237.436 C 194.741 238.408 195.748 238.444 196.827 238.048 C 197.907 237.652 198.77 237.041 198.59 235.674 C 198.41 234.306 198.914 234.162 199.993 234.198 C 201.073 234.234 201.541 234.198 202.332 234.198 C 203.663 234.198 204.095 234.594 203.951 235.925 C 203.951 236.717 203.735 237.436 204.779 237.652 C 205.822 237.868 206.937 239.271 208.161 237.652 C 209.384 236.033 209.744 236.321 211.039 237.652 L 211.542 238.12 C 212.082 238.66 213.018 238.84 213.162 239.703 C 213.305 240.567 212.406 240.926 212.082 241.538 C 211.435 242.689 212.082 243.553 212.694 244.452 C 212.984 245.102 213.688 245.462 214.385 245.316 C 216.364 244.956 216.543 245.064 216.975 247.079 C 217.011 247.522 217.011 247.967 216.975 248.41 C 216.975 249.489 216.975 250.281 215.572 250.461 C 214.169 250.641 213.917 251.864 213.593 253.015 C 213.269 254.166 213.989 254.706 214.888 255.138 C 215.788 255.57 216.184 256.397 215.392 257.404 C 215.13 257.779 214.901 258.177 214.709 258.592 C 213.845 260.319 213.521 260.463 211.794 259.635 C 210.93 259.286 209.94 259.484 209.276 260.139 C 208.592 260.643 208.161 261.254 208.412 262.298 Z  M 207.873 250.209 C 207.854 248.399 207.114 246.671 205.818 245.409 C 204.521 244.146 202.775 243.452 200.965 243.481 C 198.574 243.481 196.365 244.756 195.169 246.827 C 193.974 248.897 193.974 251.448 195.169 253.519 C 196.365 255.589 198.574 256.865 200.965 256.865 C 204.707 256.925 207.794 253.95 207.873 250.209 Z  M 184.631 288.094 Q 174.881 282.23 164.986 276.365 C 164.427 275.981 163.757 275.791 163.08 275.825 C 162.605 276.004 162.157 276.246 161.748 276.545 C 159.806 277.804 157.899 279.063 155.992 280.143 C 154.085 281.222 153.905 281.618 155.092 283.741 C 159.422 291.304 164.33 298.521 169.772 305.328 C 170.779 306.587 171.283 306.551 172.326 305.328 Q 178.694 297.88 184.99 290.361 C 185.962 289.281 185.926 288.85 184.631 288.094 Z  M 253.493 211.46 C 248.004 206.217 241.603 202.023 234.605 199.084 C 233.282 198.466 231.91 197.96 230.503 197.572 C 229.388 197.572 229.172 198.256 228.956 198.94 C 227.949 201.962 227.049 205.056 225.97 208.042 C 225.752 208.469 225.721 208.967 225.885 209.417 C 226.049 209.867 226.392 210.229 226.833 210.417 L 242.808 220.814 C 243.565 221.444 244.687 221.348 245.326 220.599 C 247.989 218.224 250.687 215.885 253.385 213.583 C 254.285 212.827 254.465 212.36 253.493 211.46 Z  M 231.439 267.55 C 231.834 268.27 231.618 268.666 230.863 269.026 C 229.064 269.889 228.956 271.184 230.575 272.407 C 231.259 272.947 231.546 273.523 231.115 274.278 C 230.683 275.034 230.863 276.257 229.424 276.185 L 228.704 276.185 C 227.265 276.005 226.51 276.797 226.833 278.236 C 226.969 278.95 226.79 279.688 226.342 280.26 C 225.894 280.832 225.221 281.183 224.495 281.222 C 223.919 281.222 223.667 280.718 223.307 280.359 C 222.156 279.063 221.005 279.243 220.249 280.826 C 219.961 281.438 219.746 282.23 218.81 281.906 C 217.875 281.582 216.22 281.906 216.292 279.963 C 216.364 278.02 215.5 277.696 213.845 278.236 C 212.386 278.629 210.882 277.78 210.463 276.329 C 210.463 275.861 210.787 275.646 211.039 275.358 C 212.37 273.703 212.154 272.839 210.139 272.192 C 209.384 271.94 208.88 271.544 208.952 270.609 C 209.024 269.673 208.952 268.702 210.139 268.306 C 212.514 267.55 212.694 266.795 211.075 264.708 C 210.854 264.539 210.743 264.263 210.787 263.989 C 211.374 262.736 212.684 261.987 214.061 262.118 C 216.292 262.657 216.472 262.549 217.047 260.319 C 217.263 259.527 217.623 259.024 218.558 259.095 C 218.912 259.185 219.283 259.185 219.638 259.095 C 220.393 258.772 220.573 259.095 220.789 259.779 C 221.509 262.01 222.768 262.298 224.387 260.571 C 224.567 260.299 224.871 260.136 225.196 260.136 C 225.522 260.136 225.826 260.299 226.006 260.571 C 226.367 260.855 226.752 261.108 227.157 261.326 C 227.841 261.722 228.021 262.19 227.517 262.873 C 227.005 263.392 227.005 264.226 227.517 264.744 C 228.093 265.392 228.668 266.003 229.604 265.68 C 230.539 265.356 231.043 265.68 231.223 266.723 C 231.271 267.004 231.343 267.281 231.439 267.55 Z  M 225.25 270.465 C 225.157 267.802 223.02 265.664 220.357 265.572 C 217.687 265.659 215.522 267.762 215.356 270.429 C 215.503 272.99 217.577 275.017 220.141 275.106 C 221.438 275.184 222.712 274.736 223.674 273.862 C 224.636 272.988 225.204 271.763 225.25 270.465 Z  M 235.864 250.209 C 235.864 250.892 235.864 251.432 235.036 251.756 C 233.309 252.475 233.309 252.511 233.921 254.31 C 234.209 255.246 233.669 255.857 233.13 256.505 C 232.59 257.153 232.194 256.757 231.654 256.505 C 230.467 255.929 229.856 256.289 229.64 257.692 C 229.424 259.095 228.884 258.808 228.093 258.988 C 227.419 259.196 226.695 258.873 226.402 258.232 C 225.574 256.721 225.214 256.685 223.847 257.836 C 223.482 258.193 222.925 258.266 222.48 258.016 C 221.544 257.512 221.149 257.081 221.185 256.433 C 221.185 254.238 221.185 254.238 219.242 253.843 C 218.713 253.761 218.273 253.393 218.099 252.887 C 217.926 252.382 218.047 251.821 218.414 251.432 C 219.674 249.849 219.674 249.849 218.414 248.158 C 218.141 247.636 218.135 247.014 218.399 246.486 C 218.662 245.959 219.164 245.59 219.746 245.496 C 221.724 245.244 221.796 245.208 221.544 243.337 C 221.544 242.186 222.444 242.222 222.984 241.79 C 223.523 241.358 223.883 241.79 224.279 242.078 C 225.538 243.337 225.754 243.373 226.833 241.79 C 227.409 240.962 228.129 241.07 228.884 241.178 C 229.64 241.286 229.856 241.862 229.999 242.545 C 230.323 244.092 230.719 244.344 232.122 243.733 C 232.372 243.563 232.681 243.505 232.975 243.573 C 233.269 243.642 233.52 243.83 233.669 244.092 C 234.065 244.668 234.641 245.136 234.173 245.999 C 233.201 247.798 233.237 247.906 235 248.59 C 235.9 249.058 235.828 249.669 235.864 250.209 Z  M 230.539 250.209 C 230.539 248.222 228.928 246.611 226.941 246.611 C 225.021 246.764 223.496 248.289 223.343 250.209 C 223.402 252.228 224.934 253.899 226.941 254.13 C 228.98 253.962 230.546 252.254 230.539 250.209 Z " fill="rgb(255,255,255)"/></g></svg>