<?xml version="1.0" standalone="no"?><!-- Generator: Gravit.io -->
<svg xmlns="http://www.w3.org/2000/svg" xmlns:xlink="http://www.w3.org/1999/xlink" style="isolation:isolate"
     viewBox="422.179 81.662 517.4 604.676" width="517.4" height="604.676">
  <g id="tunis_map">
    <path
      d=" M 467.854 519.113 L 493.811 500.144 C 493.811 500.144 502.297 485.668 529.752 493.655 L 611.118 457.714 L 614.113 460.709 L 607.624 467.198 C 600.358 474.764 597.036 485.285 598.639 495.651 L 597.141 504.637 L 599.637 512.124 L 595.644 515.619 L 598.139 519.113 L 593.647 522.607 L 596.642 530.095 L 603.131 530.095 L 607.125 524.105 L 606.626 533.09 L 614.113 535.087 L 614.113 544.571 L 618.107 547.566 L 621.102 555.054 L 624.596 555.054 L 624.596 567.034 L 634.58 577.018 L 624.097 596.985 C 624.097 596.985 614.612 595.487 617.607 605.471 L 642.067 633.924 L 646.061 633.924 L 629.089 651.895 L 628.589 656.886 L 623.598 663.875 L 616.609 656.886 L 608.622 675.356 C 608.622 675.356 591.65 664.873 588.156 680.348 L 570.185 680.348 L 567.19 673.359 L 551.217 675.855 L 541.233 666.87 L 540.235 660.88 L 536.74 659.382 L 531.749 651.895 L 528.754 649.898 L 528.254 644.407 L 530.251 640.414 L 529.253 634.923 L 534.744 607.967 L 521.765 600.978 L 517.272 602.476 L 499.801 585.504 L 471.348 571.527 L 484.826 558.049 L 467.854 519.113 Z "
      fill="rgb(203,203,203)" vector-effect="non-scaling-stroke" stroke-width="2.995" stroke="rgb(255,255,255)"
      stroke-linejoin="miter" stroke-linecap="butt" stroke-miterlimit="4"/>
    <path
      d=" M 464.609 517.695 C 464.609 517.695 462.113 488.743 453.627 482.254 L 450.632 476.763 L 444.642 476.763 L 440.648 468.276 L 435.657 464.782 L 428.169 460.29 L 436.655 450.805 L 441.647 446.313 L 441.148 438.825 L 446.389 433.833 L 455.624 433.833 L 464.609 431.836 C 464.609 431.836 469.601 441.82 477.088 445.314 L 480.583 443.318 L 496.057 460.29 L 507.039 436.828 C 507.039 436.828 524.011 442.319 523.512 431.836 L 527.506 428.342 L 538.488 437.827 C 538.488 437.827 549.469 418.359 568.937 423.85 L 574.928 430.838 L 585.41 434.332 L 585.41 438.326 L 591.9 433.833 L 594.396 443.318 C 594.396 443.318 613.364 422.851 624.346 422.851 L 639.821 422.851 L 636.826 405.36 L 646.31 405.36 C 646.31 405.36 626.842 392.481 621.351 377.456 L 602.383 384.394 C 602.383 384.394 592.399 370.936 587.906 322.017 L 601.883 322.017 L 607.374 315.528 L 621.351 299.554 L 632.333 299.554 L 641.319 307.541 L 663.782 330.503 L 690.568 308.709 C 690.568 308.709 696.558 299.724 725.51 311.704 L 728.505 301.381 L 728.505 285.407 L 731.84 285.407 L 731.84 280.415 L 746.815 270.771 L 748.143 262.115 L 755.8 255.796 L 758.795 257.792 L 753.804 289.071 L 753.804 291.397 L 764.786 284.409 L 764.786 288.742 L 768.44 296.728 L 781.758 316.027 L 811.708 398.561 L 743.82 417.859 L 719.859 472.44 L 719.191 476.433 L 725.181 479.089 L 727.177 488.413 L 733.168 491.738 L 733.836 499.056 L 741.154 501.722 L 741.154 517.695 L 737.161 524.354 L 732.499 518.364 L 727.177 527.679 L 727.177 541.656 L 722.515 545.649 L 722.515 562.951 L 704.545 580.262 L 693.233 609.544 L 685.915 606.22 L 676.591 614.207 L 676.591 592.902 L 685.915 583.587 L 675.932 575.6 L 677.928 564.289 L 669.941 542.325 L 665.948 485.748 C 661.511 477.329 658.157 468.382 655.964 459.122 C 655.964 459.122 651.971 439.823 639.991 441.151 L 610.699 458.463 L 603.381 455.128 L 540.155 487.076 C 540.155 487.076 546.145 490.41 498.883 491.069 L 464.609 517.695 Z "
      fill="rgb(202,202,203)" vector-effect="non-scaling-stroke" stroke-width="2.995" stroke="rgb(255,255,255)"
      stroke-linejoin="miter" stroke-linecap="butt" stroke-miterlimit="4"/>
    <path
      d=" M 595.644 351.219 L 589.653 358.547 L 598.309 445.734 C 598.309 445.734 624.925 413.117 644.893 425.766 L 640.899 408.465 L 650.224 407.127 L 638.244 398.481 L 624.925 379.393 L 608.952 386.501 C 600.333 376.774 595.596 364.215 595.644 351.219 Z "
      fill="rgb(202,202,203)" vector-effect="non-scaling-stroke" stroke-width="2.995" stroke="rgb(255,255,255)"
      stroke-linejoin="miter" stroke-linecap="butt" stroke-miterlimit="4"/>
    <path
      d=" M 808.624 279.337 L 774.679 282.672 L 768.03 291.317 L 788.327 324.603 L 815.951 399.14 L 851.224 395.816 L 864.532 407.796 L 873.187 410.462 L 873.187 403.134 L 863.873 391.822 L 868.525 383.835 L 876.512 370.527 L 882.502 358.547 L 865.201 340.576 L 857.214 337.242 L 817.279 305.294 C 817.279 305.294 817.948 277.34 807.296 288.662 L 808.624 279.337 Z "
      fill="rgb(202,202,203)" vector-effect="non-scaling-stroke" stroke-width="2.995" stroke="rgb(255,255,255)"
      stroke-linejoin="miter" stroke-linecap="butt" stroke-miterlimit="4"/>
    <path
      d=" M 809.292 280.006 L 809.292 289.99 C 809.292 289.99 818.607 277.34 815.951 303.967 L 853.22 333.917 C 853.22 333.917 859.21 331.252 881.843 357.209 L 887.164 347.894 L 891.827 337.242 L 888.492 328.596 L 883.171 326.599 L 879.846 312.622 L 868.525 318.612 L 865.869 303.967 L 879.178 289.321 C 879.178 289.321 863.204 273.347 843.237 272.019 L 838.574 265.36 L 828.591 278.009 L 809.292 280.006 Z "
      fill="rgb(202,202,203)" vector-effect="non-scaling-stroke" stroke-width="2.995" stroke="rgb(255,255,255)"
      stroke-linejoin="miter" stroke-linecap="butt" stroke-miterlimit="4"/>
    <path
      d=" M 902.639 252.052 L 897.148 262.535 C 897.148 262.535 885.337 266.029 882.502 272.019 L 878.678 272.019 L 878.678 288.492 L 867.197 299.973 L 867.197 318.942 C 867.197 318.942 878.179 312.453 879.178 311.953 L 882.502 326.929 L 887.664 329.425 L 889.161 335.415 L 895.151 335.415 L 896.649 338.41 L 895.65 317.444 L 902.639 303.967 L 912.623 286.994 L 916.616 277.011 L 921.109 271.021 L 912.623 261.536 L 910.127 252.052 L 902.639 252.052 Z "
      fill="rgb(202,202,203)" vector-effect="non-scaling-stroke" stroke-width="2.995" stroke="rgb(255,255,255)"
      stroke-linejoin="miter" stroke-linecap="butt" stroke-miterlimit="4"/>
    <path
      d=" M 913.122 241.07 L 924.603 241.07 L 929.595 246.062 L 933.588 248.558 L 933.588 255.546 L 933.588 260.538 L 933.588 265.53 L 931.092 270.522 L 923.355 270.522 L 918.114 270.522 L 910.127 257.703 L 910.127 250.055 L 913.122 241.07 L 913.122 241.07 Z "
      fill="rgb(202,202,203)" vector-effect="non-scaling-stroke" stroke-width="2.995" stroke="rgb(255,255,255)"
      stroke-linejoin="miter" stroke-linecap="butt" stroke-miterlimit="4"/>
    <path
      d=" M 769.358 104.295 L 780.669 87.652 C 780.669 87.652 848.558 150.888 860.538 140.905 L 865.869 138.239 L 869.194 141.973 L 872.519 152.216 L 878.509 147.554 L 881.843 148.891 L 881.843 152.216 C 881.843 152.216 890.489 155.54 881.843 171.514 C 881.843 171.514 874.855 184.832 885.687 192.15 L 889.161 206.796 L 915.787 230.757 L 915.787 241.399 L 895.82 260.708 L 885.168 270.022 L 879.178 270.022 L 879.178 287.993 C 879.178 287.993 852.551 264.032 842.568 272.688 L 839.243 266.698 C 839.243 266.698 827.932 250.724 815.283 250.724 C 815.283 250.724 810.62 235.409 827.932 224.767 L 822.601 212.786 L 832.584 206.127 C 832.584 206.127 843.906 177.504 823.269 180.839 L 823.269 172.183 L 818.607 166.862 L 812.617 152.885 L 805.968 143.56 L 805.299 137.57 L 797.981 136.242 L 796.643 128.255 L 790.653 132.249 L 786.66 112.95 C 786.66 112.95 780.011 102.967 769.358 104.295 Z "
      fill="rgb(202,202,203)" vector-effect="non-scaling-stroke" stroke-width="2.995" stroke="rgb(255,255,255)"
      stroke-linejoin="miter" stroke-linecap="butt" stroke-miterlimit="4"/>
  </g>
</svg>
