<?xml version="1.0" encoding="utf-8"?>
<svg width="160" height="48" viewBox="0 0 160 48" xmlns="http://www.w3.org/2000/svg"
     xmlns:xlink="http://www.w3.org/1999/xlink">
  <svg viewBox="0 0 80 48" width="80" height="48" id="logotype" xmlns="http://www.w3.org/2000/svg">
    <title>logotype</title>
    <path
      d="M67.14 29a1.1 1.1 0 0 0 .47-1.15 2.28 2.28 0 0 1 .84-2.06.5.5 0 0 0 .16-.29 2.19 2.19 0 0 1 2.61-1.6 2.08 2.08 0 0 1 1.94 1.8.49.49 0 0 0 .14.3 2.17 2.17 0 0 1 .55 1.65.46.46 0 0 0 .24.46 1.71 1.71 0 0 1 .82 1.58v5.37a2.07 2.07 0 0 1-2.47 2h-5.15c-.3 0-.43.08-.46.38a3.21 3.21 0 0 1-.38.82c0 .05-.12.12 0 .2s.13 0 .2 0a5.05 5.05 0 0 1 4.33 0 .21.21 0 0 0 .24 0 3.78 3.78 0 0 1 2.92-.37 2.2 2.2 0 0 1 .89.31.16.16 0 0 0 .2 0 5 5 0 0 1 3.53-.15 1.76 1.76 0 0 1 1.24 1.8V45.69a2.76 2.76 0 0 1-.31 1.39A2 2 0 0 1 78 48a3.27 3.27 0 0 1-1.82-.26.37.37 0 0 0-.29 0 3.5 3.5 0 0 1-1.51 0 .42.42 0 0 0-.29 0 2.76 2.76 0 0 1-2.36.11 1.54 1.54 0 0 0-1.31 0 4.65 4.65 0 0 1-3.79-.22.21.21 0 0 0-.24 0 3.3 3.3 0 0 1-2.68.23.33.33 0 0 1-.17-.07c-.25-.25-.45-.13-.73 0a2.79 2.79 0 0 1-2.59-.11.4.4 0 0 0-.53 0 1.79 1.79 0 0 1-1.18.33c-.83 0-1.66.05-2.48 0-1.39-.08-2.78.07-4.17 0s-2.91 0-4.37 0a2.59 2.59 0 0 1-1.56-.37c-.19-.14-.35 0-.52.09a4.94 4.94 0 0 1-1.88.42 4.84 4.84 0 0 1-2.58-.77.3.3 0 0 0-.4 0 4.56 4.56 0 0 1-4.62.26.28.28 0 0 0-.28 0 4.67 4.67 0 0 1-1.65.38 7.64 7.64 0 0 1-.79.13 4.23 4.23 0 0 1-3.84-1.81 2.62 2.62 0 0 1-.35-.83 9.32 9.32 0 0 1-.39-2.77c0-.53.14-1.05.21-1.55-1.24 1.22-2.47 2.45-3.73 3.67-.91.9-1.86 1.75-2.79 2.63a2.57 2.57 0 0 1-1.48.75 2.21 2.21 0 0 1-1.84-.48c-2-1.78-3.9-3.6-5.74-5.51A86.88 86.88 0 0 1 6.8 35a56.76 56.76 0 0 1-4-5.84A24.25 24.25 0 0 1 .36 23.2 17.16 17.16 0 0 1 0 18.63a15.94 15.94 0 0 1 .83-4.39 16.84 16.84 0 0 1 2.26-5 7.73 7.73 0 0 1 .79-1 .66.66 0 0 0 .2-.57A3.34 3.34 0 0 1 6.93 4.2h.11a1.58 1.58 0 0 0 1.56-.7 8.4 8.4 0 0 1 2.06-1.34 16.72 16.72 0 0 1 3-1.34 19 19 0 0 1 2.52-.68 22.39 22.39 0 0 1 4.69-.45 20.24 20.24 0 0 1 4 .46 22.77 22.77 0 0 1 3.67 1.19A19.84 19.84 0 0 1 34.29 5a20.12 20.12 0 0 1 4 5.09A21.73 21.73 0 0 1 40.78 17a14.62 14.62 0 0 1 0 4.85 10 10 0 0 1-.16 1.34 27.4 27.4 0 0 1-1.51 4l-.09.2a4.46 4.46 0 0 1 3.68 1.74.84.84 0 0 0 .14-.42 1.73 1.73 0 0 1 1.29-1.3 10.16 10.16 0 0 1 3.37-.53 5.54 5.54 0 0 1 4.25 1.77c.05.06.09.14.14.21l.08-.05v-1.7a1.9 1.9 0 0 1 1.15-1.85 3.69 3.69 0 0 1 2-.17 2 2 0 0 1 1.27.68 3.24 3.24 0 0 1 3.73-.27 1.91 1.91 0 0 1 .68 1.5 5.62 5.62 0 0 1 0 .72 4.61 4.61 0 0 1 1.82-.43 7.34 7.34 0 0 1 1.55.06c.38.07.75.05 1.13.13A2.14 2.14 0 0 1 67.14 29z"
      fill="#e7233f"/>
    <path
      d="M38.92 16.52A18.58 18.58 0 0 0 28.3 3.07a21.59 21.59 0 0 0-7.24-1.76 11.09 11.09 0 0 0-2.3.17 18.69 18.69 0 0 0-8.07 2.67A4 4 0 0 0 9.63 5a.57.57 0 0 0 .69.9 5.6 5.6 0 0 0 .61-.38 16.91 16.91 0 0 1 9.5-2.83H21a17.68 17.68 0 0 1 3.48.4c.25 0 .41.2.33.49s-.17.66-.28 1c-.72 2.06-1.33 4.16-2.11 6.2-.27.68-.25.67-1 .6A9.08 9.08 0 0 0 17 12a8.71 8.71 0 0 0-4.29 4.11c-.33.61-.34.62-1 .43l-3.18-.92-3.96-1.11c-.57-.16-.57-.26-.37-.81s.43-1 .69-1.48.69-1.22 1-1.83a.57.57 0 0 0-.18-.83c-.33-.24-.55-.06-.75.18a7.37 7.37 0 0 0-.8 1.2A17.93 17.93 0 0 0 2.09 17c-.09.61-.26 1.21-.32 1.83a13.23 13.23 0 0 0 .46 4 15.16 15.16 0 0 0 1.11 3.31 38.91 38.91 0 0 0 4.45 7.09A65.3 65.3 0 0 0 12.66 39c2.38 2.53 4.82 5 7.43 7.28.44.39.44.38.87 0a108.91 108.91 0 0 0 8.58-8.61c.56-.64 1.11-1.29 1.66-1.94a.57.57 0 0 0-.84-.77 6.26 6.26 0 0 0-.5.53c-1.17 1.42-2.45 2.75-3.69 4.11-.22.25-.37.22-.56 0-.71-1-1.43-1.92-2.14-2.87-.28-.38-.26-.47.17-.7.72-.37 1.44-.74 2.17-1.1s.66-.4.41-1c-.62-1.58-1.25-3.14-1.88-4.71-.36-.89-.37-.89.47-1.34a9 9 0 0 0 4-10.81 8.68 8.68 0 0 0-2.1-3.27 7.38 7.38 0 0 0-3-1.86c-.32-.11-.45-.25-.33-.61.32-.9.61-1.81.9-2.72.22-.7.28-.72.9-.31l4.34 2.83c.5.33.69.33 1.11-.07.83-.79 1.8-1.41 2.62-2.21.24-.23.43-.19.65 0A13.1 13.1 0 0 1 35 10.2a17.92 17.92 0 0 1 2.71 6.54 12.82 12.82 0 0 1 0 5.78 20.46 20.46 0 0 1-2.21 5.13c-.4.71-.85 1.38-1.25 2.09-.22.39-.14.66.18.85s.64.05.9-.39c.73-1.18 1.47-2.35 2.09-3.59a14.74 14.74 0 0 0 1.5-10.09zm-30.47.37c1 .31 2.07.59 3.11.9.17.05.4.07.34.47a6.48 6.48 0 0 0-.21 1.61 12.53 12.53 0 0 0 .68 3.38 7.43 7.43 0 0 0 2.46 3.59c.2.17.44.33.18.65s-.46.45-.86.21l-4-2.4-1.4-.83a1 1 0 0 1-.55-.94q-.06-3.16-.15-6.33c0-.3.06-.42.4-.31zm-4.13 8.47A13 13 0 0 1 3 18.87a17.64 17.64 0 0 1 .48-3.08c.09-.35.25-.42.58-.32.68.22 1.36.42 2 .62a1 1 0 0 1 .82 1.1v2.08c.06 1.55.1 2.86.18 4.17a1 1 0 0 1-.54 1c-.58.31-1.12.7-1.67 1.06-.22.2-.39.14-.53-.14zm5 8a47 47 0 0 1-4.08-6c-.33-.58-.32-.64.25-1s1.06-.68 1.6-1a1.55 1.55 0 0 1 .37-.2.86.86 0 0 1 .53.15q2.75 1.62 5.46 3.26c.36.21.37.33.1.65q-1.74 2.05-3.55 4.12c-.25.35-.39.36-.67.01zm15.56.1c.05.12.09.24.12.33 0 .28-.17.39-.35.48l-2.55 1.29c-.56.28-.58.38-.21.88l2.52 3.35c.2.26.28.58.46.85s-.09.39-.23.53l-2.31 2.22-1.41 1.35c-.33.32-.43.33-.76 0a108.11 108.11 0 0 1-7.59-7.7l-1.74-2c-.39-.44-.4-.44 0-.88L16 28.12a.41.41 0 0 1 .59-.12 8.57 8.57 0 0 0 5.63.76c.6-.11.71 0 .93.54.51 1.41 1.24 2.7 1.74 4.15zm7.69-25.64c-.75.64-1.5 1.29-2.24 1.95a.5.5 0 0 1-.7.06l-4.44-2.89a.48.48 0 0 1-.19-.66c.3-.83.55-1.69.83-2.53.06-.19.12-.4.43-.38a7.23 7.23 0 0 1 1.14.42 17.3 17.3 0 0 1 5.2 3.44c.27.25.22.38-.03.59zm45.7 38a.38.38 0 0 1-.37.44 1.86 1.86 0 0 1-.34 0c-.54 0-.66-.09-.66-.63v-3.32a2.55 2.55 0 0 0 0-.38 7.43 7.43 0 0 0-.43 1.44c-.18.68-.33 1.36-.49 2-.12.46-.24.55-.72.52H75c-.35.05-.52-.11-.6-.44-.25-1.07-.51-2.14-.78-3.22a.88.88 0 0 0-.19-.42v3.71c0 .25 0 .53-.28.6a1.2 1.2 0 0 1-.93 0c-.14-.08-.15-.25-.15-.41v-5.37c0-.4.16-.53.57-.55h.8c.62 0 .9.17 1 .79a28.78 28.78 0 0 0 .7 3.19h.1c.24-1.09.49-2.17.73-3.26.12-.59.19-.65.78-.65h1.14c.24 0 .37.1.37.37.01 1.82.01 3.69.01 5.55zm-8.79-6a3.28 3.28 0 0 0-1.36 0 1.92 1.92 0 0 0-1.51 1.45 6.59 6.59 0 0 0-.14 3.09 2 2 0 0 0 2.1 2 2.23 2.23 0 0 0 2.62-2 9.31 9.31 0 0 0 .08-1.36 5.43 5.43 0 0 0-.27-1.89 1.87 1.87 0 0 0-1.52-1.35zm.42 3.29a4.65 4.65 0 0 1-.09 1.29.86.86 0 0 1-1 .71.88.88 0 0 1-1-.72 5.36 5.36 0 0 1 0-2.64.86.86 0 0 1 .89-.75 1 1 0 0 1 1 .55 3.46 3.46 0 0 1 .2 1.5zM39 39.83a3.34 3.34 0 0 0-1.66 0A1.78 1.78 0 0 0 36 40.85a5.94 5.94 0 0 0-.13 4.07 1.84 1.84 0 0 0 1.67 1.4 2.29 2.29 0 0 0 2.83-1.87 7.61 7.61 0 0 0 .14-1.31 7.12 7.12 0 0 0-.17-1.68A2 2 0 0 0 39 39.83zm0 4.48a.87.87 0 0 1-1 .74.86.86 0 0 1-1-.7 5.14 5.14 0 0 1 0-2.64.88.88 0 0 1 .85-.74 1 1 0 0 1 1 .6 4.15 4.15 0 0 1 .2 1.63 4.27 4.27 0 0 1-.05 1.11zm26.53 1.15c0 .26.06.56-.21.69a1.38 1.38 0 0 1-1 0c-.17 0-.13-.22-.13-.36v-1.76c0-.28-.08-.42-.38-.42s-.71-.06-1.07 0-.61.21-.58.66 0 .91.08 1.37a.57.57 0 0 1-.61.66c-.5 0-.72-.15-.73-.6v-5.3c0-.51.15-.61.83-.6.42 0 .5.12.49.62s0 1 0 1.52c0 .29.11.43.41.42s.79 0 1.18 0 .4-.14.4-.42v-1.56c0-.56.11-.56.56-.56.79 0 .79 0 .78.85-.01 1.59.01 3.19.02 4.79zm-33.64-3.54a7.81 7.81 0 0 0 0 2.16 1.14 1.14 0 0 0 1.28 1c.18 0 .43 0 .41-.29s.2-.64-.2-.85a1 1 0 0 1-.2-1.15 2.58 2.58 0 0 1 1.35 0c.31.06.34.36.34.61v2.33c0 .18 0 .38-.25.42a5.89 5.89 0 0 1-2.64.1A1.7 1.7 0 0 1 30.73 45a6.73 6.73 0 0 1 0-3.9 1.81 1.81 0 0 1 1.7-1.36 7.21 7.21 0 0 1 2.12.16c.37.09.43.3.32.91-.06.33-.28.3-.52.27a7.34 7.34 0 0 0-1.47-.08.93.93 0 0 0-.99.92zm13.92-1.62V44.08c0 1.72-1.15 2.34-2.61 2.21A1.77 1.77 0 0 1 41.41 45a4 4 0 0 1-.12-1v-3.69c0-.48.15-.59.76-.6.39 0 .54.14.54.57V44.13a1 1 0 0 0 1.46.78.81.81 0 0 0 .41-.77v-2.1-1.67c0-.56.12-.6.58-.6h.27c.41.04.51.14.5.53zm6.31 1.22v.3a.49.49 0 0 0 .55.57h.95c.36 0 .52.1.55.46s-.11.77-.49.78-.76 0-1.14 0a.35.35 0 0 0-.43.36c-.09.83 0 .95.83.95h1.26c.42 0 .49.16.48.49v.38c0 .29-.15.42-.46.41H51.3c-.36 0-.5-.12-.5-.49v-5.34c0-.48.1-.58.58-.58h2.75c.44 0 .53.08.54.49 0 .58-.1.77-.53.79s-1.07 0-1.6 0c-.31-.02-.43.13-.42.43zm6.78 3.82v.38c0 .38-.11.5-.5.5h-2.47c-.35 0-.48-.13-.48-.47V40.5c0-.6.1-.7.68-.69h.19c.42 0 .49.1.48.53v4.15c0 .32.14.46.46.44h1.26c.25-.01.4.12.38.41zm-8.65 0c0 .86 0 .83-.87.89-.72 0-1.42-.06-2.13 0-.32 0-.43-.12-.43-.43v-2.71-2.7c0-.23 0-.47.28-.53a1.33 1.33 0 0 1 1 0c.13.08.08.26.08.4v4.11c0 .47.06.52.54.52h1.18c.23.03.35.16.35.45zm9.92-5.17c-.17.54-.33 1.08-.52 1.62a.76.76 0 0 1-.76.49c-.23 0-.39-.09-.32-.41.11-.5.17-1 .27-1.53a.83.83 0 0 1 1.25-.48.24.24 0 0 1 .08.31zm9.26-12.48c0-.46.21-.66.64-.66s.55.18.55.67-.19.71-.66.71-.54-.17-.53-.72zm.87-1.39c0-.5.16-.68.64-.68s.52.08.52.65-.17.7-.66.69-.5-.13-.5-.66zm.87.9a.73.73 0 0 1 .82-.07c.24.11.16.37.16.61a.49.49 0 0 1-.43.64c-.25.05-.49.07-.65-.18a1.22 1.22 0 0 1 .1-1zm-12.06 7.45v-7.21c0-.63 0-.68-.7-.66a1.54 1.54 0 0 0-.3 0 .34.34 0 0 0-.31.44 5.06 5.06 0 0 1 0 .87v5.46c0 .49-.06.54-.56.53s-.89 0-1.33 0c-.75 0-.81 0-.81-.76v-6.18c0-.24-.09-.36-.32-.38a4.61 4.61 0 0 0-.53 0c-.31 0-.45.18-.45.52v6.37c0 .4-.11.49-.51.46a9.48 9.48 0 0 0-1.41 0c-.39 0-.48 0-.48-.44a15.29 15.29 0 0 0 0-1.79 3.32 3.32 0 0 0-1.78-2.76 6.32 6.32 0 0 0-4.83-.05c-.41.12-.21.51-.17.8s.26.2.45.17a10.41 10.41 0 0 1 2.84-.19A2.38 2.38 0 0 1 50 31.63a5.58 5.58 0 0 1 .16 1.63c0 .94.21.86-.91.85a.39.39 0 0 1-.45-.4v-.38a2.26 2.26 0 0 0-2.22-2.14 2.36 2.36 0 0 0-2.34 2.51c0 .33-.1.43-.41.42s-.79 0-1.19 0c-.63 0-.86-.26-.87-.89s0-1.07 0-1.6a2.3 2.3 0 0 0-2-2.4 6.85 6.85 0 0 0-2.43.1.87.87 0 0 0-.76.78 11.25 11.25 0 0 0-.1 3.75.59.59 0 0 1-.26.69 1.48 1.48 0 0 0-.59 1 6.93 6.93 0 0 0 .28 3.38c.07.28.41.34.83.2.27-.09.23-.26.19-.48a9.28 9.28 0 0 1-.25-1.81c0-1.08.41-1.49 1.48-1.49h2.9c.25 0 .51.05.67-.23.06-.1.15 0 .23 0a1.46 1.46 0 0 0 .91.22h15.59c.54-.05.65-.14.65-.69zm-19-.51a16.19 16.19 0 0 0-2 0c-.26 0-.39-.12-.42-.39a12.37 12.37 0 0 1 0-3 .36.36 0 0 1 .34-.35 4.24 4.24 0 0 1 1.33 0 1.43 1.43 0 0 1 1.09 1.4v1.92c0 .3-.02.43-.32.42zm6.43 0a1.9 1.9 0 0 0-.67 0 .26.26 0 0 1-.34-.23 1.37 1.37 0 0 1 .24-1.25 1 1 0 0 1 1.71.39c.28.89.14 1.06-.92 1.09zm22.71 1.14h3.39c.34 0 .5-.14.5-.48v-5a.38.38 0 0 0-.39-.45 10.92 10.92 0 0 0-2.74 0 2.08 2.08 0 0 0-1.9 1.88 7.77 7.77 0 0 0 0 2.5c.06.3 0 .39-.3.38h-1.76c-.59 0-.6-.05-.6-.57v-3.77c0-.31-.09-.53-.43-.57a12 12 0 0 0-2.39-.15 2 2 0 0 0-2 1.2 5.57 5.57 0 0 0 0 3.92 1.52 1.52 0 0 0 1.26 1 7 7 0 0 0 1.29.06c1.13 0 1-.13.82 1.09a.68.68 0 0 1-.74.63 6.41 6.41 0 0 1-1.52-.11c-.26 0-.45-.06-.51.27-.1.64-.06.79.31.87a7.63 7.63 0 0 0 1.58.16 1.89 1.89 0 0 0 1.94-1.37 4.31 4.31 0 0 0 .27-1.07.46.46 0 0 1 .55-.47zm.22-4.18a.69.69 0 0 1 .33-.45 2.81 2.81 0 0 1 1.66-.27c.26 0 .35.25.39.5a12.45 12.45 0 0 1 0 1.59v1.26c0 .39-.1.44-.4.41a10.44 10.44 0 0 0-1.48 0 .5.5 0 0 1-.56-.41 4.71 4.71 0 0 1 .08-2.63zm-5.55 3h-1.14a1.07 1.07 0 0 1-1-.79 3.81 3.81 0 0 1 0-2.29 1 1 0 0 1 .94-.76 7.11 7.11 0 0 1 .91-.07.45.45 0 0 1 .52.51v3.08c.11.22.03.38-.21.36z"
      fill="#080606"/>
    <path
      d="M5.92 7.38a1.64 1.64 0 0 1 1.65-1.51 1.58 1.58 0 0 1 1.49 1.62A1.64 1.64 0 0 1 7.5 9.05a1.54 1.54 0 0 1-1.58-1.67zm27 23.62a1.56 1.56 0 0 0-1.58 1.57 1.5 1.5 0 0 0 1.54 1.58 1.58 1.58 0 0 0 1.59-1.6A1.54 1.54 0 0 0 32.92 31zm-12.85-9.64c.14.34 0 .56-.32.72a2.92 2.92 0 0 1-.46.18c-.31.12-.52 0-.61-.29s-.19-.44-.49-.43-.68 0-.82.39-.36.43-.69.3l-.39-.13c-.3-.11-.46-.29-.31-.62a.61.61 0 0 0-.25-.79.56.56 0 0 0-.82 0c-.22.2-.39.11-.53-.11s-.15-.26-.24-.38c-.31-.5-.28-.63.23-.93.12-.07.22-.15.2-.29a4.86 4.86 0 0 0-.15-.66A.4.4 0 0 0 14 18c-.34 0-.45-.17-.39-.49 0-.17.08-.34.11-.52.08-.47.16-.52.63-.42s.51-.17.66-.41a.54.54 0 0 0 0-.7c-.34-.43-.33-.48.09-.81a4.19 4.19 0 0 0 .33-.26c.24-.19.46-.21.65.06s.47.28.77.17.54-.28.49-.66.09-.42.39-.41.43 0 .65 0c.37 0 .49.11.45.48 0 .22-.06.42.23.48s.6.45.94 0 .44-.37.8 0l.14.13c.15.15.41.2.45.44s-.21.34-.3.51c-.18.32 0 .56.17.81a.42.42 0 0 0 .47.24c.55-.1.6-.07.72.49a2.33 2.33 0 0 1 0 .37c0 .3 0 .52-.39.57s-.46.39-.55.71.11.47.36.59.36.35.14.63a2.17 2.17 0 0 0-.19.33c-.24.48-.33.52-.81.29a.65.65 0 0 0-.7.14c-.19.14-.31.31-.24.6zM19.92 18A1.89 1.89 0 0 0 18 16.13a1.86 1.86 0 1 0 0 3.72A1.89 1.89 0 0 0 19.92 18zm-6.46 10.53Q10.75 26.9 8 25.27a.86.86 0 0 0-.53-.15 1.55 1.55 0 0 0-.37.2c-.54.35-1.07.7-1.6 1s-.58.41-.25 1a47 47 0 0 0 4.08 6c.28.35.42.34.71 0q1.77-2.07 3.52-4.16c.27-.3.26-.42-.1-.63zM32.6 7.23a17.3 17.3 0 0 0-5.25-3.44 7.23 7.23 0 0 0-1.14-.42c-.31 0-.37.19-.43.38-.28.84-.53 1.7-.83 2.53a.48.48 0 0 0 .24.66l4.44 2.89a.5.5 0 0 0 .7-.06c.74-.66 1.49-1.31 2.24-1.95.25-.21.3-.34.03-.59zm-6.13 15.59c.11.2.05.31-.16.41-.5.24-.53.6-.08.94.19.15.27.31.15.52s-.07.55-.47.53h-.2c-.4-.05-.61.17-.52.57a.7.7 0 0 1-.65.83c-.16 0-.23-.14-.33-.24-.32-.36-.64-.31-.85.13-.08.17-.14.39-.4.3s-.72 0-.7-.54-.22-.63-.68-.48a.77.77 0 0 1-.94-.53c0-.13.09-.19.16-.27.37-.46.31-.7-.25-.88-.21-.07-.35-.18-.33-.44s0-.53.33-.64c.66-.21.71-.42.26-1a.21.21 0 0 1-.08-.2.91.91 0 0 1 .91-.52c.62.15.67.12.83-.5.06-.22.16-.36.42-.34a.61.61 0 0 0 .3 0c.21-.09.26 0 .32.19.2.62.55.7 1 .22a.27.27 0 0 1 .45 0 2.2 2.2 0 0 0 .32.21c.19.11.24.24.1.43a.37.37 0 0 0 0 .52c.16.18.32.35.58.26s.4 0 .45.29a1.4 1.4 0 0 0 .06.23zm-1.72.81a1.41 1.41 0 0 0-1.36-1.36A1.44 1.44 0 0 0 22 23.62a1.38 1.38 0 0 0 1.33 1.3 1.34 1.34 0 0 0 1.42-1.29zM27.7 18c0 .19 0 .34-.23.43-.48.2-.48.21-.31.71.08.26-.07.43-.22.61s-.26.07-.41 0c-.33-.16-.5-.06-.56.33s-.21.31-.43.36a.39.39 0 0 1-.47-.21c-.23-.42-.33-.43-.71-.11a.32.32 0 0 1-.38.05c-.26-.14-.37-.26-.36-.44 0-.61 0-.61-.54-.72a.4.4 0 0 1-.23-.67c.35-.44.35-.44 0-.91a.51.51 0 0 1 .37-.74c.55-.07.57-.08.5-.6 0-.32.25-.31.4-.43s.25 0 .36.08c.35.35.41.36.71-.08.16-.23.36-.2.57-.17s.27.19.31.38c.09.43.2.5.59.33a.3.3 0 0 1 .43.1c.11.16.27.29.14.53-.27.5-.26.53.23.72.25.13.23.3.24.45zm-1.48 0a1 1 0 0 0-1-1 1.09 1.09 0 0 0-1 1 1.13 1.13 0 0 0 1 1.09 1.09 1.09 0 0 0 1-1.09z"
      fill="#fff"/>
  </svg>
  <svg viewBox="0 0 80 48" width="80" height="48" id="logotypeNegative" x="80" xmlns="http://www.w3.org/2000/svg">
    <title>logotypeNegative</title>
    <path
      d="M60.08 39.92a.24.24 0 0 1 .08.31c-.17.54-.33 1.09-.52 1.62a.76.76 0 0 1-.76.49c-.23 0-.38-.09-.32-.4.12-.51.18-1 .27-1.53a.83.83 0 0 1 1.25-.49zM18 19.91a1.86 1.86 0 1 0 0-3.72 1.86 1.86 0 1 0 0 3.72zm59.88 20h-1.12c-.58 0-.65.07-.78.65-.24 1.09-.49 2.17-.73 3.26h-.09a26.55 26.55 0 0 1-.71-3.18c-.08-.62-.36-.84-1-.8-.27 0-.53 0-.8.06s-.57.14-.57.54v5.37c0 .16 0 .33.15.41a1.18 1.18 0 0 0 .92.05c.28-.08.28-.36.28-.61v-3.73a.91.91 0 0 1 .2.42l.78 3.22c.07.32.24.49.59.43h.23c.48 0 .6-.06.72-.53.16-.68.31-1.36.49-2a7.14 7.14 0 0 1 .43-1.47 1.63 1.63 0 0 1 0 .38v3.31c0 .54.11.65.66.63h.34a.39.39 0 0 0 .37-.44v-5.61c.03-.27-.09-.39-.34-.39zM58.48 45h-1.25c-.41 0-.47-.13-.47-.45v-4.14c0-.43 0-.52-.48-.53h-.19c-.58 0-.67.09-.67.69v5.25c0 .34.13.48.48.48h2.47c.39 0 .5-.12.5-.5v-.38c.04-.31-.11-.42-.39-.42zM71 41.17a5.71 5.71 0 0 1 .23 1.88 8 8 0 0 1-.08 1.3 2.22 2.22 0 0 1-2.62 2 2.05 2.05 0 0 1-2.1-2 6.73 6.73 0 0 1 .14-3.09 2 2 0 0 1 1.51-1.45 3.46 3.46 0 0 1 1.36 0A1.89 1.89 0 0 1 71 41.17zm-1.33.41a1 1 0 0 0-1-.54.83.83 0 0 0-.81.72 5.25 5.25 0 0 0 0 2.64.88.88 0 0 0 1 .72.87.87 0 0 0 1-.72 4.58 4.58 0 0 0 .09-1.28 3.5 3.5 0 0 0-.25-1.54zM70.79 27c.49 0 .67-.18.66-.69s-.07-.66-.52-.66-.64.18-.64.69.1.66.5.66zm.28 1.23c.15.26.4.23.64.18a.5.5 0 0 0 .44-.64c0-.24.07-.49-.17-.61a.75.75 0 0 0-.82.07 1.19 1.19 0 0 0-.09 1.03zm-38.2 12.85a6.67 6.67 0 0 1 1.48.05c.24 0 .46.06.52-.27.12-.6.05-.82-.32-.9a7.21 7.21 0 0 0-2.12-.17 1.82 1.82 0 0 0-1.7 1.36 6.68 6.68 0 0 0 0 3.91A1.65 1.65 0 0 0 32 46.28a5.88 5.88 0 0 0 2.64-.1c.21 0 .25-.24.25-.42v-1.11-1.22c0-.25 0-.55-.35-.6a2.44 2.44 0 0 0-1.34 0 .93.93 0 0 0 .18 1.17c.4.21.18.56.2.85s-.24.27-.42.29a1.13 1.13 0 0 1-1.28-1 7.89 7.89 0 0 1 0-2.17.93.93 0 0 1 .99-.89zm-9.49-18.74A1.43 1.43 0 0 0 22 23.68 1.41 1.41 0 0 0 23.37 25a1.35 1.35 0 0 0 1.37-1.3 1.4 1.4 0 0 0-1.36-1.36zM70 28.47c.47 0 .66-.19.66-.71s-.13-.66-.55-.66-.63.2-.64.65.06.72.53.72zm-32.5-1.8c-.62 1.24-1.36 2.41-2.08 3.59-.27.44-.59.57-.9.39s-.41-.46-.19-.85c.4-.7.86-1.38 1.25-2.09a20.3 20.3 0 0 0 2.21-5.13 12.82 12.82 0 0 0 0-5.78A18.09 18.09 0 0 0 35 10.26a16.08 16.08 0 0 0-1.1-1.37.4.4 0 0 0-.65 0c-.82.8-1.79 1.42-2.62 2.21-.42.4-.61.4-1.11.08L25.19 8.3c-.61-.41-.67-.38-.9.32-.29.9-.58 1.81-.9 2.71-.12.36 0 .51.34.61a7.52 7.52 0 0 1 3 1.86 8.68 8.68 0 0 1 2.1 3.27 9 9 0 0 1-4 10.81c-.84.46-.83.45-.47 1.34.64 1.57 1.26 3.14 1.88 4.71.25.63.21.72-.41 1s-1.45.73-2.17 1.11c-.43.22-.45.32-.17.69.71 1 1.44 1.91 2.14 2.87.19.26.34.29.57 0 1.24-1.37 2.52-2.69 3.69-4.12a4.85 4.85 0 0 1 .49-.52.57.57 0 0 1 .84.76c-.54.66-1.09 1.31-1.66 1.94a109 109 0 0 1-8.56 8.7c-.42.38-.43.39-.86 0-2.62-2.29-5.06-4.75-7.44-7.28a70.26 70.26 0 0 1-4.87-5.76 39.81 39.81 0 0 1-4.45-7.09 15.34 15.34 0 0 1-1.11-3.31 13 13 0 0 1-.45-4c.06-.61.22-1.21.31-1.82A18 18 0 0 1 4.18 11 7.68 7.68 0 0 1 5 9.8c.21-.23.42-.41.75-.18a.57.57 0 0 1 .18.83c-.33.62-.7 1.21-1 1.83s-.47 1-.69 1.48-.19.65.37.82l3.87 1.12 3.18.92c.67.2.69.19 1-.42A8.7 8.7 0 0 1 17 12.09a8.88 8.88 0 0 1 4.43-.7c.74.07.71.08 1-.61.79-2 1.4-4.14 2.11-6.2.11-.32.19-.66.28-1s-.08-.44-.33-.48A18.47 18.47 0 0 0 21 2.7h-.54a16.85 16.85 0 0 0-9.49 2.83 4.49 4.49 0 0 1-.62.38.55.55 0 0 1-.75-.14.56.56 0 0 1 .02-.77 4.17 4.17 0 0 1 1.06-.8 18.69 18.69 0 0 1 8.07-2.67 11.88 11.88 0 0 1 2.3-.17 21.65 21.65 0 0 1 7.25 1.77 18.59 18.59 0 0 1 10.61 13.46 14.66 14.66 0 0 1-1.46 10.08zM14 18.09a.41.41 0 0 1 .46.26 3.63 3.63 0 0 1 .15.67c0 .14-.08.22-.2.29-.51.29-.54.43-.22.92l.24.39c.13.22.31.3.53.11a.55.55 0 0 1 .81 0 .63.63 0 0 1 .26.8c-.15.32 0 .5.3.61l.39.14c.33.12.58.05.7-.3s.48-.38.81-.4.43.17.5.43.3.41.6.3a3.17 3.17 0 0 0 .46-.19.54.54 0 0 0 .32-.72c-.11-.29.05-.45.25-.61a.61.61 0 0 1 .7-.14c.48.22.56.18.81-.3A1.52 1.52 0 0 1 22 20c.22-.28.18-.48-.14-.63s-.43-.27-.35-.59.17-.65.54-.71.42-.26.39-.56a2.33 2.33 0 0 0 0-.38c-.12-.56-.16-.59-.72-.49a.42.42 0 0 1-.47-.24c-.15-.25-.34-.49-.17-.81s.33-.27.3-.5-.3-.3-.45-.45l-.14-.13c-.35-.33-.52-.34-.8 0s-.63.06-.94 0-.25-.26-.23-.48-.08-.48-.45-.48h-.64c-.21 0-.43.11-.4.41s-.16.54-.49.66-.56.12-.77-.18-.41-.25-.65-.06l-.32.27c-.43.32-.44.37-.09.8a.56.56 0 0 1 0 .71c-.15.23-.3.48-.65.4s-.55 0-.64.43c0 .17-.07.34-.11.51s0 .61.39.59zm-5.9-.82c.06 2.11.11 4.21.15 6.32a1 1 0 0 0 .55.94c.47.28.94.55 1.41.84l4 2.39c.4.24.55.19.87-.2s0-.49-.19-.66a7.45 7.45 0 0 1-2.46-3.58 12.29 12.29 0 0 1-.67-3.38 6.65 6.65 0 0 1 .2-1.62c.06-.39-.16-.42-.34-.47-1-.3-2.08-.59-3.11-.9-.4-.1-.51.05-.46.32zm-3.21 8.31c.55-.36 1.09-.74 1.67-1.06a1 1 0 0 0 .54-1c-.1-1.33-.1-2.63-.18-4.18v-2.08a1 1 0 0 0-.83-1.11c-.68-.2-1.36-.39-2-.61-.32-.11-.49 0-.57.31A18 18 0 0 0 3 18.93a13 13 0 0 0 1.32 6.49c.13.28.31.34.57.16zM10 33.4l3.51-4.15c.27-.32.26-.44-.09-.66L8 25.33a.83.83 0 0 0-.54-.14 1.14 1.14 0 0 0-.37.2l-1.6 1c-.56.35-.58.4-.25 1a47.12 47.12 0 0 0 4.09 6c.27.37.41.37.67.01zm13.08-4c-.23-.58-.33-.65-.94-.54a8.56 8.56 0 0 1-5.63-.75.41.41 0 0 0-.59.11c-1.71 2-3.44 4-5.15 6.07-.37.44-.37.45 0 .89l1.74 2c2.39 2.7 4.95 5.25 7.59 7.71.33.3.43.29.77 0l1.4-1.35 2.31-2.21c.15-.15.4-.3.24-.54s-.27-.59-.47-.85c-.83-1.12-1.68-2.23-2.51-3.35-.38-.5-.35-.6.2-.88l2.55-1.28c.18-.1.36-.2.35-.49l-.11-.32c-.44-1.53-1.17-2.85-1.71-4.26zm3.34-6.48a1.38 1.38 0 0 1-.08-.29c-.06-.25-.17-.39-.45-.29s-.43-.08-.58-.26a.37.37 0 0 1 0-.52c.15-.19.09-.32-.1-.43a1.69 1.69 0 0 1-.31-.21.28.28 0 0 0-.45 0c-.45.48-.8.4-1-.22-.06-.16-.11-.28-.32-.19a.61.61 0 0 1-.3 0c-.25 0-.36.13-.42.35-.16.62-.21.64-.83.49a.92.92 0 0 0-.91.53c0 .09 0 .14.08.2.45.54.4.74-.26.95-.35.12-.3.38-.33.65s.12.36.34.43c.55.18.62.42.25.88-.07.08-.2.14-.17.28a.76.76 0 0 0 .94.52c.46-.15.71 0 .68.48s.42.44.71.54.31-.13.39-.3c.21-.44.53-.48.86-.13.09.11.16.24.32.24a.69.69 0 0 0 .65-.83c-.08-.39.12-.62.52-.57h.2c.4 0 .35-.32.47-.52a.37.37 0 0 0-.15-.52c-.45-.35-.42-.71.09-.95.25-.04.31-.15.2-.35zm-3.25-6.09a.52.52 0 0 0-.37.74c.35.47.35.47 0 .91a.41.41 0 0 0 .23.68c.55.11.55.11.54.71 0 .19.1.3.36.44a.3.3 0 0 0 .38-.05c.38-.32.48-.31.71.11a.39.39 0 0 0 .48.21c.21 0 .38-.11.42-.36s.23-.49.56-.33c.15.08.28.15.41 0s.31-.35.22-.61c-.17-.5-.17-.51.31-.71.22-.09.24-.23.23-.42s0-.36-.24-.46c-.49-.19-.5-.21-.23-.71.14-.25 0-.38-.14-.54a.3.3 0 0 0-.43-.1c-.39.18-.49.11-.59-.33 0-.18-.1-.35-.31-.38s-.41-.06-.57.18c-.3.43-.36.43-.71.07-.11-.11-.21-.2-.36-.08s-.43.11-.39.43c.1.49.09.49-.47.56zm9.39-9.5a17.66 17.66 0 0 0-5.26-3.44 6.57 6.57 0 0 0-1.14-.42c-.31 0-.37.19-.43.39-.28.84-.53 1.69-.83 2.52a.48.48 0 0 0 .25.66q2.22 1.44 4.43 2.89a.51.51 0 0 0 .71-.06c.74-.66 1.48-1.31 2.24-1.95.28-.24.33-.38.07-.63zM49.84 45h-1.18c-.48 0-.53-.05-.53-.51v-4.13c0-.14.06-.32-.08-.39a1.33 1.33 0 0 0-1-.06c-.25.06-.27.3-.27.53v5.41c0 .31.12.45.43.43.71 0 1.42.06 2.13 0 .88 0 .87 0 .88-.88.03-.29-.09-.4-.38-.4zm15.72-4.27c0-.8 0-.84-.78-.85-.45 0-.56.11-.56.56v1.57c0 .27-.08.43-.4.42a11.61 11.61 0 0 0-1.18 0c-.3 0-.41-.13-.41-.41v-1.53c0-.53-.07-.61-.5-.61-.67 0-.82.09-.82.59v5.27c0 .44.22.62.73.59a.56.56 0 0 0 .6-.66c0-.46-.05-.91-.08-1.37s.14-.65.58-.66.71 0 1.07 0 .39.14.39.43v1.75c0 .14 0 .32.13.37a1.46 1.46 0 0 0 1 0c.26-.13.2-.43.2-.68.02-1.59.01-3.19.03-4.79zm-13 .43h1.61c.54 0 .54-.21.52-.79 0-.4-.1-.49-.54-.49h-2.77c-.47 0-.58.11-.58.59v5.33c0 .37.14.5.49.5h2.9c.31 0 .45-.13.47-.42v-.38c0-.33-.14-.5-.48-.49h-1.25c-.81 0-.92-.13-.83-.95 0-.25.15-.38.43-.36a11 11 0 0 0 1.15 0c.37 0 .53-.28.48-.79s-.19-.48-.55-.46-.63 0-1 0-.56-.19-.55-.57a1.5 1.5 0 0 0 0-.3c.04-.3.16-.44.48-.43zm-12.2.37a7.19 7.19 0 0 1 .16 1.69 6.64 6.64 0 0 1-.14 1.3 2.28 2.28 0 0 1-2.82 1.88 1.87 1.87 0 0 1-1.7-1.4 6 6 0 0 1 .14-4.08 1.73 1.73 0 0 1 1.31-1.06 3.22 3.22 0 0 1 1.66 0 2 2 0 0 1 1.37 1.66zm-1.2 1.75a4 4 0 0 0-.2-1.64 1 1 0 0 0-1-.59.87.87 0 0 0-.85.74 5.21 5.21 0 0 0 0 2.63.87.87 0 0 0 1 .71.89.89 0 0 0 1-.75 4.61 4.61 0 0 0 .03-1.11zm6.66-2.91c0-.39-.09-.48-.49-.49H45c-.46 0-.58.13-.57.6s0 1.12 0 1.68v2.09a.78.78 0 0 1-.41.77 1 1 0 0 1-1.45-.78 3.08 3.08 0 0 1 0-.53v-3.32c0-.43-.16-.57-.55-.56-.61 0-.76.12-.75.59v3.7a4 4 0 0 0 .11 1 1.76 1.76 0 0 0 1.78 1.29c1.46.13 2.61-.49 2.6-2.21v-1.71-1c0-.31.04-.77.04-1.13zM25.18 19.12a1.08 1.08 0 0 0 1-1.09 1 1 0 0 0-1-1 1.1 1.1 0 0 0-1.05 1 1.13 1.13 0 0 0 1.05 1.09zm33.28 16.23H42.89a1.54 1.54 0 0 1-.91-.22c-.07-.06-.16-.12-.22 0-.17.28-.43.22-.68.22h-2.9c-1.06 0-1.48.42-1.48 1.49a11.1 11.1 0 0 0 .3 1.81c0 .22.08.4-.19.48s-.75.08-.83-.19a7.09 7.09 0 0 1-.28-3.39 1.45 1.45 0 0 1 .6-.94.61.61 0 0 0 .25-.69 11.58 11.58 0 0 1 .1-3.76.89.89 0 0 1 .77-.78 6.78 6.78 0 0 1 2.42-.1 2.31 2.31 0 0 1 2 2.4v1.6c0 .53.24.87.88.89h1.18c.31 0 .42-.09.41-.42a2.36 2.36 0 0 1 2.34-2.51 2.26 2.26 0 0 1 2.22 2.14v.38a.4.4 0 0 0 .45.41c1.13 0 .89.08.91-.86a5.58 5.58 0 0 0-.23-1.62 2.37 2.37 0 0 0-2.11-1.77 10.06 10.06 0 0 0-2.84.2c-.19 0-.39.1-.44-.18s-.24-.68.16-.8a6.36 6.36 0 0 1 4.83.05A3.29 3.29 0 0 1 51.41 32a15.46 15.46 0 0 1 .05 1.8c0 .39.09.46.48.43a9.48 9.48 0 0 1 1.41 0c.4 0 .51-.06.51-.45v-6.37c0-.35.14-.5.45-.53a3.08 3.08 0 0 1 .53 0c.23 0 .32.13.32.38v6.18c0 .74 0 .79.8.75h1.34c.45 0 .56 0 .55-.53v-5.45a4.33 4.33 0 0 0 0-.88.35.35 0 0 1 .31-.44 1.54 1.54 0 0 1 .3 0c.65 0 .7 0 .7.67v7.21c-.06.49-.16.58-.7.58zM40.53 33.8v-.91-1a1.44 1.44 0 0 0-1.09-1.4 4.23 4.23 0 0 0-1.33 0 .34.34 0 0 0-.33.35 12.37 12.37 0 0 0 0 3c0 .27.17.41.42.39a16.35 16.35 0 0 1 2 0c.22-.01.34-.13.33-.43zm7-.64a1 1 0 0 0-1.7-.39 1.37 1.37 0 0 0-.29 1.23.27.27 0 0 0 .34.22 2 2 0 0 1 .68 0c1.05-.05 1.2-.22.94-1.06zm21.76 2.19h-3.28a.48.48 0 0 0-.55.48 5.06 5.06 0 0 1-.26 1.07 1.9 1.9 0 0 1-1.94 1.36 7.66 7.66 0 0 1-1.59-.16c-.37-.07-.41-.23-.3-.87 0-.32.24-.3.5-.26a7 7 0 0 0 1.52.1c.44 0 .67-.19.74-.63.2-1.22.32-1.08-.82-1.09a8 8 0 0 1-1.31-.06 1.54 1.54 0 0 1-1.26-1 5.57 5.57 0 0 1 0-3.92 2 2 0 0 1 2-1.2 12.85 12.85 0 0 1 2.4.15c.33 0 .42.26.42.57v3.78c0 .52.08.58.6.56s1.17 0 1.75 0c.31 0 .36-.08.31-.37a7.29 7.29 0 0 1 0-2.51A2.06 2.06 0 0 1 70 29.42a10.92 10.92 0 0 1 2.74 0 .39.39 0 0 1 .4.45v5c0 .33-.16.47-.49.47zm-5-1.5v-1.53-1.56a.46.46 0 0 0-.53-.51c-.3 0-.6 0-.9.07a1 1 0 0 0-1 .77 3.85 3.85 0 0 0 0 2.28 1.06 1.06 0 0 0 1 .8H64c.38 0 .26-.09.25-.32zm5.24-.05a.5.5 0 0 0 .55.41 9.14 9.14 0 0 1 1.48 0c.3 0 .41-.13.4-.42s0-.78 0-1.26a12.55 12.55 0 0 0 0-1.59c0-.24-.12-.47-.39-.5a2.81 2.81 0 0 0-1.66.28.69.69 0 0 0-.33.45 4.62 4.62 0 0 0-.09 2.63z"
      fill="#fff"/>
  </svg>
</svg>

