<svg style="position: absolute; width: 0; height: 0; overflow: hidden;" version="1.1" xmlns="http://www.w3.org/2000/svg" xmlns:xlink="http://www.w3.org/1999/xlink">
<defs>
<symbol id="icon-bullhorn" viewBox="0 0 32 32">
<title>bullhorn</title>
<path d="M16 0c-8.837 0-16 7.163-16 16s7.163 16 16 16c8.837 0 16-7.163 16-16v0c0-8.837-7.163-16-16-16v0zM9.285 16.824l-0.814-1.412v-1.294l0.814-1.412h0.988c0.728-0.001 1.443-0.056 2.141-0.16l-0.080 0.010c-0.102 0.65-0.16 1.401-0.16 2.165 0 0.008 0 0.017 0 0.025v-0.001c0 0.007-0 0.015-0 0.024 0 0.764 0.058 1.514 0.17 2.247l-0.010-0.082c-0.618-0.095-1.333-0.149-2.060-0.151h-0.001zM15.487 21.859l-1.741 0.696c-0.046 0.020-0.1 0.032-0.156 0.032-0.186 0-0.343-0.129-0.384-0.302l-0.001-0.003-1.2-4.729 1.882 0.362 1.812 3.369c0.032 0.056 0.050 0.124 0.050 0.195 0 0.172-0.108 0.319-0.259 0.378l-0.003 0.001zM21.605 20.155h-1.214c-1.989-1.39-4.333-2.431-6.862-2.975l-0.126-0.023c-0.143-0.714-0.225-1.536-0.226-2.376v-0c-0-0.020-0-0.044-0-0.067 0-0.808 0.075-1.598 0.22-2.364l-0.012 0.079c2.663-0.57 5.013-1.618 7.069-3.058l-0.062 0.041h1.205c1.068 0 1.934 2.419 1.934 5.369s-0.866 5.355-1.934 5.374zM21.553 10.452c-0.088-0.114-0.214-0.196-0.358-0.225l-0.004-0.001c-0.15 0.030-0.278 0.111-0.366 0.225l-0.001 0.001c-0.215 0.268-0.391 0.581-0.511 0.919l-0.007 0.022c-0.344 0.969-0.542 2.087-0.542 3.252 0 0.048 0 0.096 0.001 0.144l-0-0.007c-0.001 0.056-0.002 0.122-0.002 0.188 0 1.15 0.194 2.256 0.55 3.285l-0.021-0.070c0.127 0.361 0.302 0.673 0.523 0.947l-0.005-0.006c0.089 0.115 0.217 0.196 0.363 0.225l0.004 0.001c0.149-0.030 0.275-0.111 0.361-0.224l0.001-0.001c0.215-0.268 0.391-0.581 0.511-0.919l0.007-0.022c0.338-0.956 0.534-2.060 0.534-3.208 0-0.068-0.001-0.136-0.002-0.204l0 0.010c0.001-0.058 0.002-0.126 0.002-0.194 0-1.147-0.195-2.249-0.555-3.273l0.021 0.069c-0.123-0.357-0.294-0.666-0.509-0.939l0.005 0.007zM21.553 16.099c-0.048 0.137-0.117 0.256-0.204 0.359l0.001-0.002c-0.028 0.033-0.085 0.089-0.136 0.089-0.058-0.011-0.108-0.044-0.141-0.089l-0-0.001c-0.083-0.102-0.152-0.221-0.2-0.349l-0.003-0.009c-0.129-0.368-0.203-0.792-0.203-1.234 0-0.028 0-0.055 0.001-0.083l-0 0.004c-0-0.023-0.001-0.049-0.001-0.076 0-0.441 0.074-0.865 0.211-1.259l-0.008 0.027c0.050-0.137 0.119-0.256 0.204-0.36l-0.002 0.002c0.033-0.046 0.083-0.078 0.14-0.089l0.001-0c0.052 0 0.108 0.056 0.136 0.089 0.085 0.101 0.154 0.22 0.2 0.35l0.002 0.008c0.129 0.368 0.203 0.791 0.203 1.232 0 0.027-0 0.053-0.001 0.080l0-0.004c0 0.003 0 0.006 0 0.009 0 0.466-0.083 0.913-0.234 1.326l0.009-0.027z"></path>
</symbol>
<symbol id="icon-calendar" viewBox="0 0 32 32">
<title>calendar</title>
<path d="M9.882 22.588h12.235v-10.353h-12.235zM19.294 14.118h1.882v1.882h-1.882zM19.294 16.941h1.882v1.882h-1.882zM16.471 14.118h1.882v1.882h-1.882zM16.471 16.941h1.882v1.882h-1.882zM16.471 19.765h1.882v1.882h-1.882zM13.647 14.118h1.882v1.882h-1.882zM13.647 16.941h1.882v1.882h-1.882zM13.647 19.765h1.882v1.882h-1.882zM10.824 16.941h1.882v1.882h-1.882zM10.824 19.765h1.882v1.882h-1.882zM16 0c-8.837 0-16 7.163-16 16s7.163 16 16 16c8.837 0 16-7.163 16-16v0c0-8.837-7.163-16-16-16v0zM23.059 23.529h-14.118v-15.059h1.882v0.941h1.882v-0.941h6.588v0.941h1.882v-0.941h1.882z"></path>
</symbol>
<symbol id="icon-camera" viewBox="0 0 32 32">
<title>camera</title>
<path d="M20.706 13.647h1.882v0.941h-1.882zM32 16c0 8.837-7.163 16-16 16s-16-7.163-16-16c0-8.837 7.163-16 16-16v0c8.837 0 16 7.163 16 16v0zM23.529 12.706c0-0.52-0.421-0.941-0.941-0.941v0h-3.294c-0.235-0.941-0.471-1.882-1.412-1.882h-3.765c-0.941 0-1.176 0.941-1.412 1.882h-3.294c-0.52 0-0.941 0.421-0.941 0.941v0 8.471c0 0.52 0.421 0.941 0.941 0.941v0h13.176c0.52 0 0.941-0.421 0.941-0.941v0zM20.179 16.941c0 2.308-1.871 4.179-4.179 4.179s-4.179-1.871-4.179-4.179c0-2.308 1.871-4.179 4.179-4.179v0c2.307 0.003 4.176 1.872 4.179 4.179v0zM19.059 16.941c0-1.689-1.369-3.059-3.059-3.059s-3.059 1.369-3.059 3.059c0 1.689 1.369 3.059 3.059 3.059v0c1.689 0 3.059-1.369 3.059-3.059v0z"></path>
</symbol>
<symbol id="icon-files-empty" viewBox="0 0 32 32">
<title>files-empty</title>
<path d="M18.353 15.059h3.294v7.294c-0.003 0.129-0.106 0.233-0.235 0.235h-8.941c-0.129-0.003-0.233-0.106-0.235-0.235v-10.824c0.003-0.129 0.106-0.233 0.235-0.235h5.412v3.294c0 0.26 0.211 0.471 0.471 0.471v0zM20.019 12.922c-0.368-0.374-0.758-0.724-1.169-1.048l-0.026-0.020v2.264h2.264c-0.344-0.437-0.694-0.827-1.067-1.194l-0.002-0.002zM32 16c0 8.837-7.163 16-16 16s-16-7.163-16-16c0-8.837 7.163-16 16-16v0c8.837 0 16 7.163 16 16v0zM10.588 9.412h7.162c-0.146-0.118-0.282-0.226-0.414-0.32v0c-0.758-0.555-1.125-0.621-1.336-0.621h-5.412c-0.65 0-1.176 0.527-1.176 1.176v0 10.824c-0 0.007-0 0.015-0 0.024 0 0.567 0.4 1.040 0.934 1.151l0.008 0.001v-12c0.003-0.129 0.106-0.233 0.235-0.235h0zM22.588 15.059c0-0.212-0.066-0.579-0.621-1.336-0.404-0.55-0.817-1.035-1.263-1.489l0.002 0.002c-0.448-0.454-0.927-0.873-1.435-1.256l-0.033-0.024c-0.776-0.536-1.144-0.602-1.355-0.602h-5.412c-0.65 0-1.176 0.527-1.176 1.176v0 10.824c0 0.65 0.527 1.176 1.176 1.176v0h8.941c0.65 0 1.176-0.527 1.176-1.176v0z"></path>
</symbol>
<symbol id="icon-library" viewBox="0 0 32 32">
<title>library</title>
<path d="M16 0c-8.837 0-16 7.163-16 16s7.163 16 16 16c8.837 0 16-7.163 16-16v0c0-8.837-7.163-16-16-16v0zM24 23.529h-16v-0.941h0.941v-0.941h0.941v-5.647h-0.941v-0.941h2.824v0.941h-0.941v5.647h2.824v-5.647h-0.941v-0.941h2.824v0.941h-0.941v5.647h2.824v-5.647h-0.941v-0.941h2.824v0.941h-0.941v5.647h2.824v-5.647h-0.941v-0.941h2.824v0.941h-0.941v5.647h0.941v0.941h0.941zM24 14.118h-16v-0.941l7.529-4.706h0.941l7.529 4.706z"></path>
</symbol>
<symbol id="icon-pen" viewBox="0 0 32 32">
<title>pen</title>
<path d="M16 0c-8.837 0-16 7.163-16 16s7.163 16 16 16c8.837 0 16-7.163 16-16v0c0-8.837-7.163-16-16-16v0zM21.214 18.353c-0.028 0.259-0.085 0.471-0.424 0.546v0c-5.045 1.049-9.967 4.631-9.967 4.631l-0.842-0.842 4-4c0.175 0.086 0.381 0.137 0.599 0.137 0.003 0 0.006 0 0.008-0h-0c0.78 0 1.412-0.632 1.412-1.412s-0.632-1.412-1.412-1.412c-0.78 0-1.412 0.632-1.412 1.412v0c0.001 0.221 0.051 0.429 0.14 0.616l-0.004-0.009-4 4-0.842-0.842s3.581-4.922 4.631-9.967v0c0.075-0.339 0.287-0.395 0.546-0.424l3.873-0.325 4.019 4.019zM23.374 13.176l-1.176 0.565-3.929-3.929 0.565-1.176c0.036-0.090 0.122-0.153 0.224-0.153 0.072 0 0.137 0.032 0.181 0.082l0 0 4.207 4.207c0.051 0.044 0.082 0.109 0.082 0.181 0 0.101-0.063 0.188-0.151 0.223l-0.002 0.001z"></path>
</symbol>
<symbol id="icon-menu" viewBox="0 0 32 32">
<title>menu</title>
<path d="M2 6h28v6h-28zM2 14h28v6h-28zM2 22h28v6h-28z"></path>
</symbol>
<symbol id="icon-cross" viewBox="0 0 32 32">
<title>cross</title>
<path d="M31.708 25.708c-0-0-0-0-0-0l-9.708-9.708 9.708-9.708c0-0 0-0 0-0 0.105-0.105 0.18-0.227 0.229-0.357 0.133-0.356 0.057-0.771-0.229-1.057l-4.586-4.586c-0.286-0.286-0.702-0.361-1.057-0.229-0.13 0.048-0.252 0.124-0.357 0.228 0 0-0 0-0 0l-9.708 9.708-9.708-9.708c-0-0-0-0-0-0-0.105-0.104-0.227-0.18-0.357-0.228-0.356-0.133-0.771-0.057-1.057 0.229l-4.586 4.586c-0.286 0.286-0.361 0.702-0.229 1.057 0.049 0.13 0.124 0.252 0.229 0.357 0 0 0 0 0 0l9.708 9.708-9.708 9.708c-0 0-0 0-0 0-0.104 0.105-0.18 0.227-0.229 0.357-0.133 0.355-0.057 0.771 0.229 1.057l4.586 4.586c0.286 0.286 0.702 0.361 1.057 0.229 0.13-0.049 0.252-0.124 0.357-0.229 0-0 0-0 0-0l9.708-9.708 9.708 9.708c0 0 0 0 0 0 0.105 0.105 0.227 0.18 0.357 0.229 0.356 0.133 0.771 0.057 1.057-0.229l4.586-4.586c0.286-0.286 0.362-0.702 0.229-1.057-0.049-0.13-0.124-0.252-0.229-0.357z"></path>
</symbol>
<symbol id="icon-arrow-up" viewBox="0 0 32 32">
<title>arrow-up</title>
<path d="M16 1l-15 15h9v16h12v-16h9z"></path>
</symbol>
<symbol id="icon-arrow-right" viewBox="0 0 32 32">
<title>arrow-right</title>
<path d="M31 16l-15-15v9h-16v12h16v9z"></path>
</symbol>
<symbol id="icon-arrow-left" viewBox="0 0 32 32">
<title>arrow-left</title>
<path d="M1 16l15 15v-9h16v-12h-16v-9z"></path>
</symbol>
</defs>
</svg>
